<?xml version="1.0" standalone="no"?>
<!DOCTYPE svg PUBLIC "-//W3C//DTD SVG 20010904//EN"
 "http://www.w3.org/TR/2001/REC-SVG-20010904/DTD/svg10.dtd">
<svg version="1.0" xmlns="http://www.w3.org/2000/svg"
 width="908.000000pt" height="908.000000pt" viewBox="0 0 908.000000 908.000000"
 preserveAspectRatio="xMidYMid meet">
<metadata>
Created by potrace 1.11, written by Peter Selinger 2001-2013
</metadata>
<g transform="translate(0.000000,908.000000) scale(0.100000,-0.100000)"
fill="#000000" stroke="none">
<path d="M8950 8379 c-19 -4 -134 -29 -255 -54 -121 -25 -296 -62 -390 -81
-93 -19 -235 -49 -315 -65 -80 -17 -174 -36 -210 -44 -36 -8 -131 -28 -212
-45 -82 -16 -214 -44 -295 -61 -82 -16 -213 -44 -293 -60 -80 -16 -174 -36
-210 -44 -36 -8 -130 -28 -210 -44 -510 -105 -1034 -215 -1130 -236 -36 -8
-130 -28 -210 -44 -233 -48 -580 -120 -650 -136 -36 -8 -130 -28 -210 -44 -80
-17 -318 -66 -530 -111 -212 -45 -482 -101 -600 -126 -118 -25 -244 -51 -280
-59 -36 -8 -195 -42 -355 -75 -159 -33 -319 -67 -355 -75 -103 -23 -281 -61
-465 -100 -93 -20 -219 -47 -280 -60 -60 -13 -207 -45 -325 -70 -303 -65 -372
-80 -480 -105 -52 -11 -156 -35 -230 -51 -186 -42 -334 -77 -402 -96 l-58 -16
0 -1931 0 -1931 178 17 c97 10 206 22 242 27 36 5 67 7 70 4 3 -3 6 -224 7
-491 2 -268 6 -518 10 -557 l8 -70 34 60 c19 33 84 157 144 275 305 596 439
841 504 918 23 28 47 39 143 68 63 20 156 41 205 49 117 17 293 49 480 86 83
17 173 34 200 39 28 5 158 31 290 59 132 27 276 57 320 66 79 16 1262 269
1425 305 47 10 171 37 275 60 182 40 292 64 435 95 136 29 414 86 640 130 281
55 874 185 1425 311 88 20 185 42 215 48 30 7 444 102 919 211 l864 200 -6
389 c-4 214 -7 1084 -7 1933 0 1463 -1 1543 -17 1542 -10 -1 -34 -5 -53 -10z
m-526 -780 c8 -80 8 -356 0 -491 l-7 -105 -88 -42 c-115 -56 -161 -101 -190
-189 -12 -37 -57 -153 -100 -259 -44 -105 -82 -204 -85 -220 -5 -25 3 -39 61
-103 86 -96 101 -126 120 -244 26 -164 52 -196 201 -244 l89 -29 8 -89 c4 -49
6 -192 5 -319 -3 -200 -5 -234 -21 -263 -34 -62 -55 -65 -408 -70 l-316 -4
-23 23 c-41 43 -113 162 -147 243 -19 44 -59 159 -90 255 -30 97 -60 191 -66
210 -13 39 -10 38 -114 49 -72 7 -83 6 -84 -7 -1 -9 -5 -223 -8 -475 l-6 -459
-125 -33 c-356 -94 -498 -124 -591 -124 l-46 0 -6 68 c-4 37 -7 237 -7 445 l0
377 -65 0 c-87 0 -124 -17 -168 -78 -67 -90 -102 -194 -143 -422 -28 -159
-142 -360 -279 -495 -116 -114 -150 -129 -360 -164 -99 -17 -212 -39 -252 -49
-61 -15 -73 -16 -78 -4 -9 25 -18 475 -11 554 l8 77 112 90 c62 49 121 102
130 116 17 26 31 87 56 245 16 99 37 153 111 285 37 66 62 122 62 140 1 18
-35 101 -90 210 -49 99 -98 201 -107 226 l-18 47 -101 7 c-167 10 -153 0 -160
113 -15 226 -3 431 29 494 15 30 57 62 94 72 14 4 104 11 200 16 175 10 294 3
382 -21 86 -23 167 -143 307 -453 50 -109 98 -207 108 -218 37 -41 174 -91
193 -72 24 24 33 174 34 529 1 282 4 375 14 393 28 49 185 104 403 141 176 30
241 31 269 6 51 -45 53 -62 57 -485 3 -217 5 -396 6 -396 1 -1 47 20 101 45
l100 47 23 92 c37 148 87 272 204 507 94 187 119 229 167 278 100 102 269 196
431 241 76 21 194 43 237 45 31 1 31 1 38 -60z m-4084 -910 c111 -24 236 -110
299 -206 37 -55 118 -261 155 -393 77 -278 87 -627 25 -935 -38 -192 -157
-561 -206 -642 -130 -217 -326 -364 -663 -498 -92 -37 -100 -38 -275 -47 -303
-16 -421 2 -557 82 -85 51 -153 116 -203 194 -36 57 -91 183 -107 246 -107
435 -105 805 8 1370 35 174 184 415 329 530 124 98 415 258 522 285 33 9 103
20 154 24 110 11 454 3 519 -10z m-1826 -311 c3 -13 10 -86 16 -164 22 -297 8
-499 -41 -596 -16 -32 -82 -125 -147 -206 -153 -191 -152 -191 -267 -372 -54
-85 -146 -220 -205 -300 -130 -176 -191 -268 -224 -343 l-25 -57 43 0 c75 0
248 20 311 36 33 9 87 27 120 41 78 32 206 53 327 53 l96 0 7 -40 c4 -22 7
-141 8 -263 1 -255 -17 -453 -42 -466 -9 -5 -88 -11 -176 -15 -192 -8 -257
-17 -440 -61 -77 -18 -206 -43 -288 -55 -84 -12 -234 -45 -350 -77 -324 -88
-335 -91 -427 -104 -49 -6 -112 -9 -144 -5 l-56 7 -2 167 c-6 386 7 492 74
612 39 70 68 106 200 254 69 77 144 177 210 279 57 88 159 234 227 326 126
168 199 279 226 344 13 31 13 36 -1 41 -51 20 -234 -5 -474 -63 -166 -41 -355
-69 -384 -58 -14 6 -16 47 -16 346 l0 340 28 15 c47 24 243 73 447 110 105 20
237 47 295 60 58 14 143 32 190 41 47 9 193 41 325 72 439 103 520 121 537
122 11 1 20 -8 22 -21z"/>
<path d="M3722 5960 c-60 -27 -148 -119 -180 -187 l-27 -58 -3 -370 c-2 -203
-1 -393 3 -422 8 -66 56 -140 104 -161 25 -11 67 -16 136 -16 117 -1 168 17
229 80 74 76 71 52 74 523 2 272 -1 443 -8 474 -14 66 -42 103 -101 132 -62
32 -163 34 -227 5z"/>
<path d="M8395 3948 c-55 -15 -172 -44 -260 -64 -88 -20 -163 -39 -167 -42 -8
-8 -196 -617 -383 -1242 -70 -234 -130 -431 -132 -437 -4 -9 6 -13 31 -13 61
0 340 31 356 40 9 5 38 62 64 128 37 92 54 122 70 126 86 20 521 87 523 80 2
-5 25 -47 52 -94 42 -73 52 -85 72 -82 13 2 114 26 223 53 109 27 207 49 217
49 24 0 24 11 0 58 -24 47 -142 356 -311 812 -166 449 -240 643 -249 651 -3 3
-51 -7 -106 -23z m-86 -833 c17 -93 31 -178 31 -187 0 -16 -12 -18 -105 -18
-58 0 -105 3 -105 8 -1 19 136 380 141 374 4 -4 21 -83 38 -177z"/>
<path d="M7126 3644 c-97 -24 -193 -80 -276 -164 -94 -93 -133 -165 -154 -285
-23 -122 -41 -174 -76 -217 -35 -42 -118 -78 -180 -78 l-40 0 -2 288 -3 287
-38 -3 c-22 -2 -105 -22 -185 -45 l-147 -42 -3 -772 -2 -773 42 1 c24 0 104 6
178 12 l135 12 6 135 c4 74 7 215 8 313 1 132 4 179 14 182 32 12 136 20 164
13 72 -19 135 -135 194 -356 l32 -122 231 2 231 3 3 128 c1 70 -2 144 -7 165
-6 20 -50 102 -97 182 -120 200 -154 278 -154 358 0 79 25 151 87 250 65 105
103 144 187 195 l71 43 3 152 3 152 -83 -1 c-46 0 -109 -7 -142 -15z"/>
<path d="M5660 3332 c-78 -7 -596 -95 -750 -128 -91 -19 -208 -48 -261 -64
l-96 -30 -6 -97 c-4 -54 -7 -255 -7 -447 0 -379 -3 -408 -59 -530 -16 -34 -67
-112 -115 -175 -48 -63 -91 -131 -96 -152 -6 -21 -9 -87 -8 -146 l3 -108 75 1
c200 3 331 77 523 291 l77 87 0 443 c0 243 3 444 8 446 4 3 67 8 140 12 l132
8 0 -548 0 -547 168 4 c163 3 168 4 220 32 36 20 62 44 78 71 l24 42 0 766 c0
421 -3 767 -7 769 -5 2 -24 2 -43 0z"/>
<path d="M3430 2893 c-73 -13 -191 -48 -246 -73 l-63 -28 -56 -179 c-31 -98
-119 -374 -195 -613 -163 -509 -290 -920 -290 -934 0 -11 216 -1 328 16 101
15 136 45 186 166 64 154 128 194 325 200 l124 4 83 -86 83 -86 53 0 c31 0
113 16 198 40 80 22 152 40 162 40 9 0 19 4 23 9 7 12 -76 286 -295 971 -93
294 -170 540 -170 547 0 10 -28 13 -112 12 -62 -1 -124 -4 -138 -6z m-60 -672
c48 -25 96 -91 108 -147 10 -44 7 -79 -13 -201 l-6 -33 -119 0 c-89 0 -120 3
-120 13 0 6 12 96 27 200 l26 187 31 0 c17 0 47 -8 66 -19z"/>
<path d="M2492 2629 c-51 -5 -197 -29 -325 -54 -127 -24 -290 -50 -362 -55
-192 -15 -172 -1 -180 -132 -3 -62 -5 -432 -3 -823 l3 -710 30 3 c48 4 347 63
373 73 l25 10 -8 332 c-5 183 -8 397 -6 477 3 171 25 380 43 409 25 40 82 53
278 62 102 4 199 8 216 9 l31 0 5 118 c7 135 -2 285 -17 287 -5 1 -52 -2 -103
-6z"/>
<path d="M761 1208 c-98 -269 -180 -523 -171 -526 14 -5 253 17 259 24 3 3 6
92 6 197 0 192 -12 286 -48 370 -12 28 -13 26 -46 -65z"/>
</g>
</svg>
