<svg xmlns="http://www.w3.org/2000/svg" width="63" height="59" viewBox="0 0 63 59"><g><g><g><g><g><path  d="M57.368 12.786A5.639 5.639 0 0 1 63 18.418V53.05a5.639 5.639 0 0 1-5.632 5.632H37.063a1.23 1.23 0 0 1 0-2.461h20.305a3.175 3.175 0 0 0 3.17-3.171V18.417a3.175 3.175 0 0 0-3.17-3.17H5.632a3.175 3.175 0 0 0-3.171 3.17V53.05a3.175 3.175 0 0 0 3.171 3.172h20.305a1.23 1.23 0 0 1 0 2.46H5.632A5.639 5.639 0 0 1 0 53.05V18.418a5.639 5.639 0 0 1 5.632-5.632H7.35V8.12c0-.68.55-1.23 1.23-1.23h10.286V1.55c0-.68.551-1.23 1.23-1.23h22.81c.679 0 1.23.55 1.23 1.23v5.34H54.42c.68 0 1.23.55 1.23 1.23v4.666zm-47.558 0h9.055V9.35H9.81zm26.45-4.59h-9.52v4.59h9.52zm1.23-2.462c.68 0 1.23.551 1.23 1.23v5.822h2.954V2.781H21.327v10.005h2.953V6.965c0-.68.55-1.23 1.23-1.23zm15.7 7.052V9.35h-9.055v3.436z"/></g></g><g><path  d="M28.48 45.66c-.68 0-1.231-.551-1.231-1.23v-4.45H22.8a1.23 1.23 0 0 1-1.23-1.23v-6.04c0-.68.55-1.231 1.23-1.231h4.449V27.03c0-.68.55-1.23 1.23-1.23h6.041c.68 0 1.23.55 1.23 1.23v4.449h4.45c.679 0 1.23.55 1.23 1.23v6.041c0 .68-.551 1.23-1.23 1.23h-4.45v4.45c0 .679-.55 1.23-1.23 1.23zm1.23-2.461h3.58V38.75c0-.68.551-1.23 1.23-1.23h4.449v-3.58H34.52a1.23 1.23 0 0 1-1.23-1.23v-4.45h-3.58v4.45c0 .679-.551 1.23-1.23 1.23h-4.45v3.58h4.45c.679 0 1.23.55 1.23 1.23z"/></g><g><g><path  d="M8 51.91a1.23 1.23 0 0 1-1.23-1.23v-29.9c0-.68.55-1.23 1.23-1.23h47.004c.68 0 1.23.55 1.23 1.23v29.9c0 .68-.55 1.23-1.23 1.23zm1.23-2.46h44.544V22.01H9.23z"/></g></g><g><g><path  d="M31.517 58.677a1.24 1.24 0 0 1-1.143-.778 1.242 1.242 0 0 1 .332-1.377c.392-.343.975-.4 1.426-.14.451.26.696.794.593 1.306-.115.568-.628.99-1.208.99z"/></g></g></g></g></g></svg>
