<?xml version="1.0" encoding="UTF-8" ?>
<!DOCTYPE svg PUBLIC "-//W3C//DTD SVG 1.1//EN" "http://www.w3.org/Graphics/SVG/1.1/DTD/svg11.dtd">
<svg width="174pt" height="174pt" viewBox="0 0 174 174" version="1.1" xmlns="http://www.w3.org/2000/svg">
<g id="#000000ff">
<path  opacity="1.00" d=" M 48.23 0.00 L 104.91 0.00 C 103.98 2.49 103.22 5.04 102.41 7.58 C 117.48 11.07 131.19 19.40 141.44 30.96 C 142.66 29.61 143.89 28.26 145.12 26.92 C 152.48 36.75 160.08 46.41 167.18 56.42 C 163.71 57.92 160.25 59.46 156.83 61.08 C 159.16 71.03 159.61 81.41 157.69 91.47 C 162.94 90.85 168.18 90.12 173.44 89.53 C 173.42 101.59 173.44 113.65 173.40 125.71 C 165.66 123.46 158.01 120.89 150.25 118.69 C 150.24 122.23 150.24 125.76 150.23 129.30 C 147.08 128.31 143.93 127.29 140.80 126.24 C 135.94 131.68 130.30 136.40 124.09 140.22 C 123.91 147.80 124.37 155.40 123.90 162.96 C 123.92 165.08 121.38 165.15 119.87 165.49 C 97.44 168.35 74.97 171.00 52.56 174.00 L 50.31 174.00 C 49.54 172.79 48.61 171.56 48.72 170.04 C 48.62 161.71 48.74 153.39 48.72 145.07 C 41.13 144.56 33.52 145.31 25.94 144.94 C 24.25 145.06 22.56 143.89 22.67 142.06 C 22.38 133.41 22.64 124.74 22.58 116.08 C 16.72 115.87 10.86 116.15 5.00 116.04 C 2.97 116.30 1.51 114.84 0.00 113.76 L 0.00 112.42 C 2.05 109.51 2.66 105.96 3.76 102.65 C 6.92 92.77 10.03 82.87 13.21 72.99 C 15.22 67.04 15.59 60.66 17.86 54.77 C 23.47 38.17 35.44 24.03 50.56 15.26 C 49.80 10.17 49.00 5.09 48.23 0.00 M 54.94 5.77 C 56.67 16.42 58.20 27.10 59.92 37.76 C 66.21 37.69 72.51 37.76 78.80 37.71 C 76.95 43.49 74.96 49.23 73.06 55.01 C 78.47 55.08 83.88 55.03 89.29 55.05 C 89.31 63.79 89.26 72.54 89.31 81.28 C 94.08 68.81 98.20 56.09 102.64 43.50 C 96.79 43.51 90.94 43.50 85.09 43.50 C 88.99 30.90 93.10 18.37 96.88 5.73 C 82.90 5.81 68.92 5.73 54.94 5.77 M 100.72 13.19 C 98.15 21.37 95.53 29.54 93.03 37.75 C 98.92 37.71 104.81 37.74 110.70 37.72 C 101.62 63.53 92.72 89.41 83.47 115.15 C 83.57 97.07 83.51 78.99 83.50 60.91 C 77.33 60.84 71.15 61.03 64.98 60.78 C 66.97 55.04 68.86 49.27 70.74 43.50 C 65.50 43.51 60.26 43.48 55.02 43.53 C 53.71 36.29 52.73 28.99 51.55 21.73 C 37.59 29.64 27.42 43.52 22.65 58.73 C 21.11 63.38 20.74 68.31 19.30 72.99 C 15.32 85.39 11.36 97.79 7.49 110.22 C 13.36 110.30 19.23 110.11 25.10 110.28 C 26.68 110.14 28.51 111.32 28.33 113.06 C 28.61 121.80 28.16 130.56 28.54 139.30 C 36.36 139.25 44.20 139.06 52.02 139.35 C 53.89 139.38 54.60 141.32 54.50 142.91 C 54.57 151.19 54.49 159.48 54.51 167.76 C 75.78 165.23 97.01 162.40 118.28 159.87 C 118.66 152.27 117.60 144.42 118.80 136.96 C 124.28 132.95 130.18 129.37 134.76 124.23 C 121.44 119.64 108.14 114.96 94.84 110.31 C 108.47 110.07 122.11 110.40 135.75 110.14 C 135.68 105.81 135.69 101.48 135.72 97.15 C 138.61 98.18 141.48 99.28 144.33 100.42 C 144.35 98.01 144.34 95.60 144.33 93.19 C 146.76 92.80 149.26 92.71 151.62 91.96 C 153.69 82.62 153.52 72.81 151.43 63.48 C 149.21 64.55 146.98 65.57 144.74 66.56 C 146.74 69.19 149.19 71.42 151.64 73.63 C 149.92 74.67 148.18 75.67 146.36 76.51 C 131.22 83.64 116.29 91.25 101.02 98.08 C 109.58 89.25 118.42 80.69 127.07 71.94 C 124.49 69.21 121.80 66.59 119.12 63.95 C 122.48 62.30 125.83 60.60 129.19 58.92 C 127.15 55.74 124.90 52.69 122.67 49.64 C 127.36 44.64 132.32 39.91 137.12 35.02 C 127.77 24.04 114.82 16.23 100.72 13.19 M 130.24 50.18 C 132.80 53.79 135.42 57.35 137.92 61.00 C 134.95 62.50 131.98 63.98 129.03 65.52 C 131.15 67.61 133.23 69.74 135.25 71.92 C 133.19 73.97 131.11 76.01 129.11 78.12 C 133.49 76.45 137.61 74.18 141.88 72.24 C 139.92 69.60 135.95 67.81 135.27 64.60 C 142.87 60.96 150.61 57.59 158.25 54.01 C 153.82 47.87 149.14 41.92 144.63 35.84 C 139.80 40.59 134.98 45.35 130.24 50.18 M 150.23 98.30 C 150.23 101.81 150.25 105.31 150.29 108.81 C 147.33 107.84 144.42 106.74 141.54 105.57 C 141.50 109.01 141.51 112.46 141.56 115.90 C 137.52 116.06 133.46 115.88 129.44 116.41 C 134.46 117.89 139.40 119.61 144.34 121.30 C 144.36 117.84 144.35 114.37 144.34 110.91 C 152.15 112.93 159.77 115.63 167.52 117.86 C 167.54 110.60 167.55 103.33 167.57 96.07 C 161.80 96.87 156.00 97.47 150.23 98.30 Z" />
</g>
</svg>
