<?xml version="1.0" encoding="utf-8"?>
<!-- Generator: Adobe Illustrator 19.0.1, SVG Export Plug-In . SVG Version: 6.00 Build 0)  -->
<svg version="1.1" id="Слой_1" xmlns="http://www.w3.org/2000/svg" xmlns:xlink="http://www.w3.org/1999/xlink" x="0px" y="0px"
	 viewBox="-297.5 388.7 14.5 16.3" style="enable-background:new -297.5 388.7 14.5 16.3;" xml:space="preserve">
<g>
	<path fill="#348021" d="M-283.3,398.3c0.6-1,0.2-2.3-0.8-2.9c0,0-0.1-0.1-0.1-0.1l0,0c0.5-0.9,0.2-2.1-0.7-2.7
		c-0.3-0.2-0.6-0.3-0.9-0.3c0.3-1.5-0.6-3.1-2.1-3.4c-0.9-0.2-1.9,0-2.6,0.7c-0.6-0.9-1.8-1.2-2.7-0.7c-0.3,0.2-0.5,0.4-0.7,0.7l0,0
		c-1-0.7-2.3-0.4-3,0.5c-0.5,0.8-0.5,1.8,0.1,2.5c-0.9,0.9-0.9,2.4,0,3.4c0.1,0.1,0.3,0.3,0.5,0.4c0.6,0.3,1.3,0.4,1.9,0.2
		c0,1.6,1.2,2.9,2.8,2.9c0.5,0,1.1-0.1,1.6-0.4c0.3,1.3,1.6,2.1,2.8,1.8c0.9-0.2,1.6-0.8,1.8-1.7
		C-284.6,399.5-283.8,399.1-283.3,398.3z"/>
</g>
<g>
	<path fill="#2E701B" d="M-283.3,398.3c0.2-0.4,0.3-0.8,0.3-1.2c-0.3,1-1.2,1.6-2.1,1.5c-0.1,0-0.2,0-0.2,0.1c-0.4,1.2-1.7,1.8-2.9,1.4
		c-0.7-0.2-1.2-0.8-1.5-1.5c0-0.1-0.1-0.1-0.2-0.1c0,0,0,0,0,0c-0.8,0.4-1.8,0.4-2.6-0.1c-0.8-0.5-1.3-1.3-1.4-2.2
		c0-0.1-0.1-0.2-0.2-0.2c0,0,0,0,0,0c-1.2,0.3-2.5-0.5-2.7-1.8c-0.2-0.7,0-1.5,0.5-2c0.1-0.1,0.1-0.1,0-0.2
		c-0.6-0.8-0.5-1.9,0.2-2.6c-1.1,0.5-1.5,1.8-1,2.8c0.1,0.1,0.1,0.3,0.2,0.4c-0.9,0.9-0.9,2.4,0,3.4c0.1,0.1,0.2,0.2,0.3,0.3
		c0.6,0.4,1.4,0.5,2,0.3c0,1.6,1.2,2.9,2.8,2.9c0.5,0,1.1-0.1,1.6-0.4c0.1,0.7,0.6,1.3,1.3,1.6c1.2,0.6,2.6,0.1,3.2-1.1
		c0.1-0.1,0.1-0.3,0.2-0.4C-284.6,399.5-283.8,399.1-283.3,398.3z"/>
</g>
<g>
	<path fill="#98DB7C" d="M-290.1,399.2c-0.6,0.3-1.2,0.5-1.9,0.4c-0.5,0.3-1.2,0.7-1.6,1c-0.1,0.1-0.2,0-0.2,0c0,0,0-0.1,0-0.1
		c0.1-0.6,0.1-1.3,0.1-1.9c-0.4-0.5-0.6-1.2-0.6-1.8c-0.4,0.1-0.8,0.1-1.1,0.1c-0.1,1.5-0.5,3.7-1.6,6.2c-0.1,0.3,0,0.7,0.3,0.9
		l1.7,1c0.3,0.2,0.7,0.1,0.9-0.2c1.7-2.2,3.4-3.6,4.6-4.5C-289.9,400-290,399.6-290.1,399.2z"/>
</g>
<g>
	<path fill="#82D361" d="M-290.1,399.2c-0.6,0.3-1.2,0.5-1.9,0.4c-0.3,0.2-0.6,0.3-0.9,0.5l2.6,0.5c0.2-0.2,0.4-0.3,0.6-0.4
		C-289.9,400-290,399.6-290.1,399.2z"/>
</g>
<g>
	<path fill="#82D361" d="M-293.8,398.6c-0.4-0.5-0.6-1.2-0.6-1.8c-0.4,0.1-0.8,0.1-1.1,0.1c0,0.2,0,0.4-0.1,0.6l1.8,2.3
		C-293.8,399.4-293.8,399-293.8,398.6z"/>
</g>
<g>
	<path fill="#2E701B" d="M-287.4,394.8c-0.5,0.5-1.3,0.6-1.9,0.1c-0.2-0.2-0.3-0.4-0.4-0.7c0-0.1-0.1-0.2-0.2-0.1c0,0,0,0,0,0
		c-0.7,0.4-1.6,0.2-2-0.6c-0.2-0.4-0.3-0.8-0.1-1.3c-0.1,0.1-0.1,0.2-0.1,0.2c-0.5,0.7-0.4,1.6,0.3,2.1c0.6,0.4,1.3,0.4,1.9,0
		c0,0.7,0.6,1.3,1.4,1.3c0.5,0,0.9-0.3,1.1-0.7C-287.6,395.1-287.5,395-287.4,394.8z"/>
</g>
</svg>
