<svg xmlns="http://www.w3.org/2000/svg" width="16" height="15" viewBox="0 0 16 15"><path fill="#e56666" d="M.68 11.91v.638c0 .916.745 1.661 1.661 1.661h11.324c.916 0 1.662-.745 1.662-1.66v-.639z"/><path fill="#e56666" d="M15.361 7.44a.64.64 0 0 0 0-1.28H.639a.64.64 0 0 0 0 1.28h7.693l.01.001a.56.56 0 0 1 .34.137l2.21 1.304L13.1 7.578a.56.56 0 0 1 .34-.137h.01l.018-.001h.01z"/><path fill="#e56666" d="M9.659 0a5.677 5.677 0 0 1 5.64 5.106H.71A5.677 5.677 0 0 1 6.351 0zM5.223 2.38a.538.538 0 0 0-.528-.53c-.277 0-.542.244-.529.53a.538.538 0 0 0 .529.528c.276 0 .541-.243.528-.529zm1.104 1.086a.538.538 0 0 0-.529-.528c-.276 0-.541.243-.529.528a.538.538 0 0 0 .53.53c.276 0 .54-.244.528-.53zM7.43 2.38a.538.538 0 0 0-.528-.528c-.277 0-.542.243-.53.528a.538.538 0 0 0 .53.529c.276 0 .54-.243.528-.529zm1.103 1.087a.538.538 0 0 0-.528-.528c-.277 0-.542.243-.529.528a.538.538 0 0 0 .529.53c.276 0 .541-.244.528-.53zM9.637 2.38a.538.538 0 0 0-.529-.528c-.276 0-.541.243-.528.528a.538.538 0 0 0 .528.529c.277 0 .542-.243.529-.529zm1.103 1.087a.538.538 0 0 0-.529-.528c-.276 0-.54.243-.528.528a.538.538 0 0 0 .528.53c.277 0 .542-.244.53-.53zm1.103-1.087a.538.538 0 0 0-.528-.528c-.277 0-.542.243-.529.528a.538.538 0 0 0 .529.529c.276 0 .541-.243.528-.529z"/><path fill="#e56666" d="M15.93 9.706c0-.626-.51-1.136-1.136-1.136h-1.29l-2.326 1.373a.565.565 0 0 1-.574 0L8.28 8.57H1.205a1.137 1.137 0 0 0 0 2.272h13.59c.625 0 1.134-.51 1.134-1.136z"/></svg>
