<svg xmlns="http://www.w3.org/2000/svg" width="51" height="51" viewBox="0 0 51 51"><g><g><g><g><g><path  d="M46.02 4.383A4.986 4.986 0 0 1 51 9.363v37.851A3.79 3.79 0 0 1 47.214 51H3.785A3.79 3.79 0 0 1 0 47.215v-2.577c0-.55.446-.997.996-.997H3.69a8.15 8.15 0 0 1-2.845-6.188c0-4.504 3.664-8.168 8.168-8.168 4.503 0 8.167 3.664 8.167 8.168a8.15 8.15 0 0 1-2.845 6.188h9.952a.996.996 0 0 1 0 1.993H1.992v1.58c0 .99.805 1.794 1.793 1.794h40.096a3.762 3.762 0 0 1-.453-1.794v-1.58h-10.59a.996.996 0 0 1 0-1.993h11.587c.55 0 .996.446.996.997v2.576c0 .99.804 1.794 1.793 1.794.99 0 1.794-.805 1.794-1.794V9.364a2.992 2.992 0 0 0-2.989-2.989h-4.748V7.62a2.992 2.992 0 0 1-2.988 2.988 2.992 2.992 0 0 1-2.988-2.988V6.375H18.56V7.62a2.992 2.992 0 0 1-2.988 2.988 2.992 2.992 0 0 1-2.988-2.988V6.338a.999.999 0 0 1-.266.037H8.35A2.992 2.992 0 0 0 5.36 9.363v3.287h35.91a.996.996 0 0 1 0 1.993H5.361V26.33a.996.996 0 0 1-1.992 0V9.363a4.986 4.986 0 0 1 4.98-4.98h3.97c.091 0 .18.013.265.037V2.988A2.992 2.992 0 0 1 15.572 0a2.992 2.992 0 0 1 2.988 2.988v1.395h16.735V2.988A2.992 2.992 0 0 1 38.283 0a2.992 2.992 0 0 1 2.988 2.988v1.395zM16.567 2.988a.997.997 0 0 0-1.992 0V7.62a.997.997 0 0 0 1.992 0zm22.711 0a.997.997 0 0 0-1.992 0V7.62a.997.997 0 0 0 1.992 0zM9.013 43.628a6.183 6.183 0 0 0 6.175-6.175 6.183 6.183 0 0 0-6.175-6.176 6.183 6.183 0 0 0-6.176 6.176 6.183 6.183 0 0 0 6.176 6.176z"/></g></g></g><g><g><g><path  d="M46.65 12.942a1.003 1.003 0 0 0-.704-.292c-.262 0-.519.107-.704.292a1.004 1.004 0 0 0-.292.704c0 .262.106.52.292.704.185.186.442.292.704.292.262 0 .52-.106.704-.292.186-.185.292-.442.292-.704 0-.262-.106-.519-.292-.704z"/></g></g></g><g><g><g><path  d="M29.75 43.93a1.002 1.002 0 0 0-.704-.29c-.262 0-.519.106-.704.29a1.005 1.005 0 0 0-.292.705c0 .263.106.52.292.705.185.186.442.291.704.291.262 0 .52-.105.704-.29.186-.187.292-.444.292-.706 0-.262-.106-.518-.292-.704z"/></g></g></g><g><g><g><path  d="M26.32 34.065a3.79 3.79 0 0 1-3.785 3.785 3.79 3.79 0 0 1-3.785-3.785 3.79 3.79 0 0 1 3.785-3.785 3.79 3.79 0 0 1 3.785 3.785zm-1.992 0c0-.988-.804-1.793-1.793-1.793-.988 0-1.793.805-1.793 1.793 0 .989.805 1.793 1.793 1.793.989 0 1.793-.804 1.793-1.793z"/></g></g></g><g><g><g><path  d="M35.62 34.065a3.79 3.79 0 0 1-3.785 3.785 3.79 3.79 0 0 1-3.785-3.785 3.79 3.79 0 0 1 3.785-3.785 3.79 3.79 0 0 1 3.785 3.785zm-1.992 0c0-.988-.804-1.793-1.793-1.793-.988 0-1.793.805-1.793 1.793 0 .989.805 1.793 1.793 1.793.989 0 1.793-.804 1.793-1.793z"/></g></g></g><g><g><g><path  d="M44.91 34.065a3.79 3.79 0 0 1-3.785 3.785 3.79 3.79 0 0 1-3.785-3.785 3.79 3.79 0 0 1 3.785-3.785 3.79 3.79 0 0 1 3.785 3.785zm-1.992 0c0-.988-.804-1.793-1.793-1.793-.988 0-1.793.805-1.793 1.793 0 .989.805 1.793 1.793 1.793.989 0 1.793-.804 1.793-1.793z"/></g></g></g><g><g><g><path  d="M17.02 23.705a3.79 3.79 0 0 1-3.785 3.785 3.79 3.79 0 0 1-3.785-3.785 3.79 3.79 0 0 1 3.785-3.785 3.79 3.79 0 0 1 3.785 3.785zm-1.992 0c0-.988-.804-1.793-1.793-1.793-.988 0-1.793.805-1.793 1.793 0 .989.805 1.793 1.793 1.793.989 0 1.793-.804 1.793-1.793z"/></g></g></g><g><g><g><path  d="M35.62 23.705a3.79 3.79 0 0 1-3.785 3.785 3.79 3.79 0 0 1-3.785-3.785 3.79 3.79 0 0 1 3.785-3.785 3.79 3.79 0 0 1 3.785 3.785zm-1.992 0c0-.988-.804-1.793-1.793-1.793-.988 0-1.793.805-1.793 1.793 0 .989.805 1.793 1.793 1.793.989 0 1.793-.804 1.793-1.793z"/></g></g></g><g><g><g><path  d="M44.91 23.705a3.79 3.79 0 0 1-3.785 3.785 3.79 3.79 0 0 1-3.785-3.785 3.79 3.79 0 0 1 3.785-3.785 3.79 3.79 0 0 1 3.785 3.785zm-1.992 0c0-.988-.804-1.793-1.793-1.793-.988 0-1.793.805-1.793 1.793 0 .989.805 1.793 1.793 1.793.989 0 1.793-.804 1.793-1.793z"/></g></g></g><g><g><g><path  d="M26.32 23.705a3.79 3.79 0 0 1-3.785 3.785 3.79 3.79 0 0 1-3.785-3.785 3.79 3.79 0 0 1 3.785-3.785 3.79 3.79 0 0 1 3.785 3.785zm-1.992 0c0-.988-.804-1.793-1.793-1.793-.988 0-1.793.805-1.793 1.793 0 .989.805 1.793 1.793 1.793.989 0 1.793-.804 1.793-1.793z"/></g></g></g><g><g><g><path  d="M12.562 35.022a.996.996 0 0 0-1.41 0L7.91 38.266l-1.108-1.109a.996.996 0 0 0-1.41 1.409l1.814 1.813a.996.996 0 0 0 1.408 0l3.949-3.949a.996.996 0 0 0 0-1.408z"/></g></g></g></g></g></svg>
