<svg xmlns="http://www.w3.org/2000/svg" width="54" height="54" viewBox="0 0 54 54"><g><g><g><path  d="M54 27c0 7.212-2.808 13.992-7.908 19.092C40.992 51.192 34.212 54 27 54c-7.212 0-13.992-2.808-19.092-7.908C2.808 40.992 0 34.212 0 27c0-7.212 2.808-13.992 7.908-19.092C13.008 2.808 19.788 0 27 0c7.212 0 13.992 2.808 19.092 7.908C51.192 13.008 54 19.788 54 27zm-1.688 0c0-6.761-2.632-13.118-7.413-17.899C40.118 4.321 33.76 1.688 27 1.688c-6.761 0-13.118 2.632-17.899 7.413C4.321 13.882 1.687 20.24 1.687 27c0 6.761 2.633 13.118 7.414 17.899 4.781 4.78 11.138 7.414 17.899 7.414 6.761 0 13.118-2.633 17.899-7.414 4.78-4.781 7.413-11.138 7.413-17.899z"/></g><g><path  d="M5.067 27.005c0-12.096 9.842-21.938 21.938-21.938 4.363 0 8.577 1.278 12.187 3.694a.844.844 0 1 0 .94-1.402A23.514 23.514 0 0 0 27.004 3.38 23.47 23.47 0 0 0 10.3 10.3a23.47 23.47 0 0 0-6.92 16.705 23.584 23.584 0 0 0 6.015 15.75.841.841 0 0 0 1.191.065.844.844 0 0 0 .066-1.19 21.9 21.9 0 0 1-5.585-14.625z"/></g><g><path  d="M46.645 13.875a.844.844 0 1 0-1.403.938A21.833 21.833 0 0 1 48.936 27c0 12.097-9.841 21.938-21.937 21.938a21.985 21.985 0 0 1-13.814-4.894.844.844 0 1 0-1.063 1.31A23.677 23.677 0 0 0 27 50.625a23.47 23.47 0 0 0 16.705-6.92A23.47 23.47 0 0 0 50.624 27c0-4.698-1.376-9.237-3.98-13.125z"/></g><g><path  d="M41.621 10.653c.567.507 1.114 1.05 1.626 1.614a.842.842 0 0 0 1.192.058.844.844 0 0 0 .057-1.192 23.863 23.863 0 0 0-1.75-1.738.844.844 0 0 0-1.125 1.258z"/></g><g><path  d="M27.004 10.969a.844.844 0 0 0 .843-.844V7.594a.844.844 0 0 0-1.687 0v2.531c0 .466.378.844.844.844z"/></g><g><path  d="M26.16 43.874v2.531a.844.844 0 0 0 1.688 0v-2.531a.844.844 0 0 0-1.688 0z"/></g><g><path  d="M10.969 27.004a.844.844 0 0 0-.844-.844H7.594a.844.844 0 0 0 0 1.688h2.531a.844.844 0 0 0 .844-.844z"/></g><g><path  d="M43.03 27.004c0 .466.378.843.844.843h2.531a.844.844 0 0 0 0-1.687h-2.531a.844.844 0 0 0-.844.844z"/></g><g><path  d="M19.29 11.964l-1.265-2.192a.844.844 0 0 0-1.462.844l1.266 2.192a.844.844 0 1 0 1.461-.844z"/></g><g><path  d="M36.165 41.192a.844.844 0 0 0-1.462.844l1.266 2.192a.844.844 0 1 0 1.461-.844z"/></g><g><path  d="M10.195 37.543a.84.84 0 0 0 .42-.113l2.193-1.266a.844.844 0 0 0-.844-1.46l-2.192 1.265a.844.844 0 0 0 .423 1.574z"/></g><g><path  d="M41.615 19.403a.84.84 0 0 0 .42-.113l2.193-1.266a.844.844 0 0 0-.844-1.46l-2.192 1.265a.844.844 0 0 0 .423 1.574z"/></g><g><path  d="M37.121 9.463a.844.844 0 0 0-1.152.31l-1.266 2.191a.844.844 0 0 0 1.462.844l1.265-2.192a.844.844 0 0 0-.309-1.153z"/></g><g><path  d="M18.981 40.883a.844.844 0 0 0-1.152.309l-1.266 2.192a.844.844 0 0 0 1.462.844l1.265-2.192a.844.844 0 0 0-.309-1.153z"/></g><g><path  d="M41.192 36.165l2.192 1.265a.844.844 0 0 0 .844-1.461l-2.192-1.266a.844.844 0 1 0-.844 1.462z"/></g><g><path  d="M12.808 17.829l-2.192-1.266a.844.844 0 1 0-.844 1.462l2.192 1.265a.844.844 0 0 0 .844-1.461z"/></g><g><path  d="M32.144 37.598l-4.68-8.106a2.534 2.534 0 0 1-2.994-2.488c0-1.1.705-2.038 1.688-2.386V13.504a.844.844 0 0 1 1.687 0v11.114a2.535 2.535 0 0 1 1.688 2.386c0 .627-.23 1.2-.609 1.643l4.681 8.107a.844.844 0 0 1-1.461.844zM27 27.848a.845.845 0 0 0 0-1.688.845.845 0 0 0 0 1.688z"/></g></g></g></svg>
