<svg xmlns="http://www.w3.org/2000/svg" width="68" height="68" viewBox="0 0 68 68"><g><g><g><g><g><path  d="M68 34c0 18.747-15.251 34-34 34C15.253 68 0 52.747 0 34S15.253 0 34 0c18.749 0 34 15.253 34 34zm-2.957 0C65.043 16.882 51.117 2.957 34 2.957 16.882 2.957 2.957 16.882 2.957 34S16.882 65.044 34 65.044c17.117 0 31.043-13.926 31.043-31.044z"/></g><g><path  d="M22.175 32.52a4.44 4.44 0 0 1-4.435-4.435 4.44 4.44 0 0 1 4.435-4.435 4.44 4.44 0 0 1 4.435 4.435 4.44 4.44 0 0 1-4.435 4.435zm0-2.957a1.48 1.48 0 0 0 1.478-1.478 1.48 1.48 0 0 0-1.478-1.478 1.48 1.48 0 0 0-1.478 1.478 1.48 1.48 0 0 0 1.478 1.478z"/></g><g><path  d="M50.26 28.085c0 1.924-1.24 3.55-2.957 4.163v4.706a1.478 1.478 0 1 1-2.956 0v-4.706c-1.717-.612-2.957-2.239-2.957-4.163a4.44 4.44 0 0 1 4.435-4.435 4.44 4.44 0 0 1 4.435 4.435zm-2.957 0a1.48 1.48 0 0 0-1.478-1.478 1.48 1.48 0 0 0-1.478 1.478 1.48 1.48 0 0 0 1.478 1.478 1.48 1.48 0 0 0 1.478-1.478z"/></g><g><path  d="M34.002 41.39c-5.51 0-10.762 2.334-14.406 6.405a1.48 1.48 0 0 0 2.203 1.972c3.084-3.446 7.532-5.42 12.203-5.42 4.671 0 9.12 1.974 12.203 5.42.291.327.696.493 1.102.493a1.48 1.48 0 0 0 1.101-2.464c-3.644-4.07-8.894-6.406-14.406-6.406z"/></g><g><path  d="M49.444 14.933l-5.913-2.957a1.48 1.48 0 0 0-1.323 2.647l5.913 2.956a1.482 1.482 0 0 0 1.984-.662c.365-.73.07-1.619-.661-1.984z"/></g><g><path  d="M19.221 17.743c.222 0 .448-.05.66-.155l5.912-2.956a1.479 1.479 0 0 0-1.323-2.645l-5.913 2.957a1.479 1.479 0 0 0 .664 2.8z"/></g></g></g></g></g></svg>
