<svg xmlns="http://www.w3.org/2000/svg" width="50" height="50" viewBox="0 0 50 50"><g><g><path  d="M50 32.757L35.472 40.02a2.48 2.48 0 0 1-2.41 2.716 2.453 2.453 0 0 1-2.42 2.422 2.453 2.453 0 0 1-2.42 2.42A2.455 2.455 0 0 1 25.773 50h-.15A2.455 2.455 0 0 1 24 49.387l-.715-.63a2.54 2.54 0 0 1-1.413.437 2.515 2.515 0 0 1-2.508-2.429 2.51 2.51 0 0 1-2.42-2.42 2.51 2.51 0 0 1-2.419-2.419 2.51 2.51 0 0 1-2.421-2.432l-2.432-1.46-.193.676H7.934L0 36.066V19.355h2.638l4.017 2.342 2.216-.554v-.387a5.661 5.661 0 0 1-2.42-4.627v-1.613c0-1.54.61-2.979 1.716-4.05a5.603 5.603 0 0 1 4.104-1.592c.033 0 .064.007.097.008l-.865-2.063 4.266-4.267 2.518 1.638a13.626 13.626 0 0 1 3.019-1.252L21.927 0h6.146l.622 2.937c1.05.294 2.062.714 3.019 1.252l2.517-1.638 4.27 4.27-.88 2.061c.151-.007.302-.013.455-.009 3.018.092 5.472 2.713 5.472 5.846v1.41c0 1.846-.917 3.58-2.42 4.628v.386l3.398.85c.34.086.657.228.96.396l2.702-1.421H50zm-8.065-18.038c0-2.269-1.753-4.168-3.907-4.233a3.977 3.977 0 0 0-2.932 1.136 3.998 3.998 0 0 0-1.225 2.894v1.613c0 1.431.773 2.769 2.017 3.488l.402.233v2.554l-2.768.691a4.013 4.013 0 0 1 1.155 2.81v2.173l8.869-4.668-4.03-1.006-.002-2.552.403-.233a4.048 4.048 0 0 0 2.018-3.49zM26.216 27.444c.404.015.806.06 1.197.171l4.958 1.417h.494l.2-.105v-3.021a2.418 2.418 0 0 0-1.833-2.348l-4.618-1.154-.004-2.552.404-.233a4.048 4.048 0 0 0 2.018-3.49v-1.41c0-2.269-1.753-4.168-3.907-4.233a3.987 3.987 0 0 0-2.932 1.136 3.998 3.998 0 0 0-1.225 2.894v1.613c0 1.431.772 2.769 2.017 3.488l.402.233v2.554l-4.62 1.154a2.418 2.418 0 0 0-1.832 2.348v.238l.463-.102a9.96 9.96 0 0 1 5.167.235zM17.742 14.72v1.41c0 1.846-.917 3.58-2.42 4.628v.386l3.226.808 3.226-.808v-.387a5.661 5.661 0 0 1-2.42-4.627v-1.613c0-1.54.61-2.979 1.715-4.051a5.603 5.603 0 0 1 4.104-1.592c3.017.092 5.472 2.713 5.472 5.846v1.41c0 1.846-.917 3.58-2.42 4.628v.386l3.227.808 3.225-.808v-.387a5.661 5.661 0 0 1-2.419-4.627v-1.613c0-.889.209-1.741.593-2.511A8.913 8.913 0 0 0 25 7.258a8.898 8.898 0 0 0-7.884 4.812c.398.8.626 1.7.626 2.65zm-3.43-5.369c.669.3 1.272.73 1.78 1.261A10.52 10.52 0 0 1 25 5.645c3.62 0 6.978 1.898 8.878 4.918.032-.033.06-.068.094-.1a5.636 5.636 0 0 1 1.702-1.132l.915-2.141-2.573-2.575-2.268 1.476-.434-.266a12.045 12.045 0 0 0-3.492-1.449l-.496-.118-.56-2.645h-3.531l-.561 2.646-.497.119c-1.23.294-2.404.782-3.492 1.448l-.434.266-2.267-1.476-2.577 2.577zM8.65 22.862l4.253 2.481-.03 1.49-.066.23 2.516-.56v-.597c0-1.084.437-2.077 1.154-2.81l-2.767-.692-.003-2.552.403-.233a4.048 4.048 0 0 0 2.019-3.49v-1.41c0-2.269-1.753-4.168-3.907-4.233a3.98 3.98 0 0 0-2.932 1.136 3.998 3.998 0 0 0-1.225 2.894v1.613c0 1.431.772 2.769 2.016 3.488l.403.233v2.554zm-7.037 12.04l3.461 1.154 2.927-11.705-5.8-3.383h-.588zm6.65 2.195L11.29 26.5v-.23l-1.839-1.073-2.843 11.37 1.587.53zm6.35 3.226a.91.91 0 0 0 .64-.265l1.418-1.418a.905.905 0 0 0-1.279-1.279l-1.418 1.418a.905.905 0 0 0 .64 1.544zm2.42 2.419a.91.91 0 0 0 .64-.265l1.417-1.417a.905.905 0 0 0-1.279-1.279l-1.417 1.417a.905.905 0 0 0 .64 1.544zm2.42 2.42a.91.91 0 0 0 .639-.265l1.418-1.418A.905.905 0 0 0 20.23 42.2l-1.418 1.418a.905.905 0 0 0 .64 1.544zm3.058 2.154l1.418-1.418a.905.905 0 0 0-1.279-1.279l-1.418 1.418a.905.905 0 0 0 1.279 1.279zm3.26 1.071a.842.842 0 0 0 .54-1.487l-.734-.61a2.509 2.509 0 0 1-.508.749l-.605.605.603.532c.153.136.35.211.556.211zm7.233-7.258a.868.868 0 0 0 .58-1.513l-6.814-6.132a1.665 1.665 0 0 0-1.934-.186l-3.003 1.8c-.418.253-.9.386-1.39.386a2.705 2.705 0 0 1-2.701-2.702v-.16c0-1.029.572-1.954 1.492-2.416l4.027-2.013-1.188-.38a8.309 8.309 0 0 0-4.326-.196l-5.445 1.21-2.171 7.601 2.477 1.487c.071-.096.141-.192.226-.276l1.417-1.418a2.534 2.534 0 0 1 1.78-.737 2.514 2.514 0 0 1 2.507 2.428 2.51 2.51 0 0 1 2.42 2.42 2.51 2.51 0 0 1 2.42 2.419 2.509 2.509 0 0 1 2.165 1.41l1.8 1.5c.237.197.539.307.848.307a.842.842 0 0 0 .539-1.486l-4.247-3.54 1.033-1.239 4.38 3.65c.151.126.343.195.538.195h.176a.842.842 0 0 0 .54-1.487l-4.247-3.538 1.033-1.24 4.374 3.644c.154.13.352.202.554.202zm15.383-18.444l-15.123 7.96-1.228-.03-5.068-1.448a3.505 3.505 0 0 0-2.513.233l-4.499 2.25c-.37.185-.601.557-.601.973v.16a1.09 1.09 0 0 0 1.647.933l3.004-1.801a3.248 3.248 0 0 1 3.843.371l6.813 6.133c.048.043.095.088.139.134l13.586-6.793z"/></g></g></svg>
