<svg xmlns="http://www.w3.org/2000/svg" width="53" height="69" viewBox="0 0 53 69"><g><g><g><path  d="M52.28 65.079a1.348 1.348 0 0 1-2.188 1.494 5.557 5.557 0 0 0-3.955-1.639 5.554 5.554 0 0 0-3.955 1.639A8.235 8.235 0 0 1 36.322 69a8.234 8.234 0 0 1-5.86-2.427 5.557 5.557 0 0 0-3.956-1.639 5.554 5.554 0 0 0-3.954 1.639A8.234 8.234 0 0 1 16.69 69a8.236 8.236 0 0 1-5.86-2.427 5.599 5.599 0 0 0-7.91 0 1.347 1.347 0 0 1-2.188-1.494l17.785-40.606a14.687 14.687 0 0 1-5.784-9.547l-1.85-11.817A2.69 2.69 0 0 1 13.543 0c1.079 0 2.05.641 2.475 1.634a17.114 17.114 0 0 0 6.669 7.8l3.818 2.395 3.818-2.395a17.113 17.113 0 0 0 6.67-7.8A2.69 2.69 0 0 1 39.469 0a2.69 2.69 0 0 1 2.66 3.11l-1.85 11.816a14.69 14.69 0 0 1-5.784 9.547l3.31 7.557a1.347 1.347 0 1 1-2.47 1.081l-3.405-7.775h-9.04V35.35a1.348 1.348 0 1 1-2.696 0v-7.984L4.807 62.498a8.332 8.332 0 0 1 2.07-.259c2.213 0 4.294.862 5.86 2.428a5.558 5.558 0 0 0 3.954 1.638 5.558 5.558 0 0 0 3.955-1.638c3.231-3.232 8.49-3.232 11.72 0a5.558 5.558 0 0 0 3.956 1.638 5.557 5.557 0 0 0 3.954-1.638 8.235 8.235 0 0 1 5.861-2.428c.708 0 1.402.088 2.07.26l-8.26-18.86a1.348 1.348 0 0 1 2.468-1.081zm-36.883-50.57a11.994 11.994 0 0 0 5.201 8.132h11.817a11.997 11.997 0 0 0 5.201-8.132l1.85-11.817a19.742 19.742 0 0 1-7.71 9.025l-4.363 2.738a1.367 1.367 0 0 1-.887.32h-.011c-.317 0-.63-.11-.876-.32l-4.363-2.738a19.795 19.795 0 0 1-7.716-9.024z"/></g><g><path  d="M21.548 38.83a1.351 1.351 0 0 0-1.348 1.348c0 .354.143.702.395.952.25.251.597.395.953.395.354 0 .702-.144.952-.395.251-.25.395-.598.395-.952a1.352 1.352 0 0 0-1.348-1.348z"/></g></g></g></svg>
