<svg xmlns="http://www.w3.org/2000/svg" width="67" height="72" viewBox="0 0 67 72"><g><g><path  d="M63.008 63.615c-.905 2.367-1.76 4.602-1.76 5.8a2.096 2.096 0 1 1-4.19 0c0-4.639 5.257-12.115 5.733-21.893-9.098 7.544-22.319 11.732-26.883 13.019v8.83a2.096 2.096 0 1 1-4.19 0v-8.83c-4.565-1.287-17.786-5.475-26.884-13.019.476 9.778 5.734 17.255 5.734 21.893a2.096 2.096 0 1 1-4.19 0c0-1.198-.856-3.433-1.761-5.8-5.203-13.598-6.15-24.53 2.35-36.446-1.733-4.279-1.338-8.679 1.164-12.8 2.275-3.746 3.477-7.963 3.477-12.194C11.608.832 12.625 0 13.703 0 14.861 0 15.8.938 15.8 2.096c0 5.257-1.496 10.183-4.087 14.45-1.977 3.255-2.131 6.6-.46 9.94.358.714.279 1.57-.204 2.206a35.1 35.1 0 0 0-2.54 3.831c11.532 10.07 37.103 10.077 50.616.012a35.098 35.098 0 0 0-2.547-3.843 2.097 2.097 0 0 1-.205-2.206c1.672-3.34 1.518-6.685-.458-9.94-2.674-4.402-4.087-9.372-4.087-14.37C51.827.831 52.844 0 53.922 0c1.157 0 2.095.938 2.095 2.096 0 4.417 1.246 8.598 3.478 12.274 2.502 4.12 2.896 8.52 1.164 12.799 8.951 12.551 7.17 23.848 2.35 36.446zm-.49-21.521a26.576 26.576 0 0 0-1.55-5.72c-14.901 10.524-41.14 10.51-54.326.04a26.566 26.566 0 0 0-1.535 5.68c8.814 9 25.6 13.836 28.706 14.672 3.104-.836 19.89-5.673 28.705-14.672z"/></g></g></svg>
