<svg xmlns="http://www.w3.org/2000/svg" width="396" height="295" viewBox="0 0 396 295"><g><g><g><g><g><path  d="M390.91 228.942l-12.561-21.641 12.561-21.642-.085-.594a29.204 29.204 0 0 0 5.092-13.749c0-6.959-3.649-12.136-15.022-12.136h-95.393a15.028 15.028 0 0 0-10.1 3.904l-.509.51a15.018 15.018 0 0 0-4.413 10.693v6.62h49.31a31.66 31.66 0 0 1 21.895 8.486l.51.51a31.74 31.74 0 0 1 9.335 22.49v42.435h29.45c11.372 0 15.022-5.177 15.022-12.137a29.208 29.208 0 0 0-5.092-13.749z"/></g></g></g><g><g><g><path  d="M121.108 163.933l-.509-.509a15.026 15.026 0 0 0-10.099-3.904H15.107c-11.373 0-15.022 5.177-15.022 12.136a29.202 29.202 0 0 0 5.092 13.75l12.56 21.64L5.263 228.52l-.17.17A29.202 29.202 0 0 0 0 242.437c0 6.96 3.65 12.137 15.022 12.137h29.45v-42.435a31.658 31.658 0 0 1 9.25-22.066 31.658 31.658 0 0 1 22.576-9.166h49.309v-6.365a15.025 15.025 0 0 0-4.499-10.609z"/></g></g></g><g><g><g><path  d="M248.195 98.741a7.21 7.21 0 0 0-3.683-2.02l-26.734-5.601-13.58-23.678a7.214 7.214 0 0 0-12.475 0l-13.58 23.678-26.733 5.601a7.214 7.214 0 0 0-3.904 11.882l18.247 20.284-2.886 27.158a7.214 7.214 0 0 0 10.1 7.299l25.036-11.118 24.612 11.033a7.213 7.213 0 0 0 10.354-7.214l-2.885-27.158 17.992-19.944a7.213 7.213 0 0 0 .119-10.202z"/></g></g></g><g><g><g><path  d="M219.128 1.76C149.078-9.882 82.852 37.466 71.21 107.517a128.561 128.561 0 0 0 0 42.161h26.14C85.64 94.04 121.252 39.446 176.889 27.738c55.637-11.71 110.232 23.902 121.94 79.539a102.948 102.948 0 0 1 0 42.4h26.055C336.526 79.627 289.178 13.403 219.128 1.76z"/></g></g></g><g><g><g><path  d="M335.741 196.785a22.15 22.15 0 0 0-15.701-6.535H76.295a22.15 22.15 0 0 0-15.7 6.535 22.155 22.155 0 0 0-6.875 15.7v59.41a22.147 22.147 0 0 0 6.11 15.276l.425.509a22.148 22.148 0 0 0 15.7 6.535H319.7c12.326.141 22.433-9.738 22.574-22.065.002-.085.002-.17.002-.256v-59.408a22.156 22.156 0 0 0-6.535-15.701z"/></g></g></g></g></g></svg>
