<?xml version="1.0" encoding="UTF-8" ?>
<!DOCTYPE svg PUBLIC "-//W3C//DTD SVG 1.1//EN" "http://www.w3.org/Graphics/SVG/1.1/DTD/svg11.dtd">
<svg width="166pt" height="166pt" viewBox="0 0 166 166" version="1.1" xmlns="http://www.w3.org/2000/svg">
<g id="#000000ff">
<path  opacity="1.00" d=" M 81.64 0.00 L 84.94 0.00 C 88.30 0.85 91.66 2.44 93.62 5.42 C 95.89 8.42 95.80 12.34 96.03 15.91 C 98.61 15.02 101.25 13.92 104.04 14.16 C 109.57 14.44 114.54 18.99 115.26 24.49 C 115.80 28.84 115.49 33.25 115.46 37.62 C 118.78 36.34 122.39 34.91 125.97 36.05 C 131.73 37.40 135.36 43.29 135.14 49.02 C 135.24 68.35 135.12 87.68 135.19 107.02 C 135.50 116.47 134.79 126.19 130.83 134.91 C 123.15 153.09 104.33 165.64 84.62 166.00 L 81.52 166.00 C 68.41 165.45 55.51 160.05 46.27 150.67 C 36.49 141.11 30.98 127.58 30.82 113.94 C 30.71 97.95 30.79 81.96 30.77 65.98 C 30.55 60.75 33.20 55.31 38.12 53.15 C 42.17 51.16 46.81 52.25 50.76 53.93 C 50.72 44.63 50.55 35.32 50.78 26.03 C 50.80 20.32 55.33 15.17 60.92 14.22 C 64.19 13.49 67.43 14.64 70.47 15.74 C 70.69 12.09 70.72 8.07 73.17 5.10 C 75.16 2.29 78.42 0.84 81.64 0.00 M 78.22 7.31 C 76.00 9.22 75.94 12.34 75.89 15.03 C 75.89 30.03 75.93 45.03 75.89 60.02 C 76.05 61.77 75.37 64.34 73.08 63.89 C 71.03 63.93 70.45 61.57 70.60 59.95 C 70.56 49.28 70.61 38.62 70.61 27.96 C 70.59 25.88 70.51 23.58 69.00 21.96 C 66.54 18.61 61.17 18.40 58.28 21.29 C 55.51 23.69 55.97 27.67 55.88 30.95 C 56.06 54.90 55.65 78.86 56.09 102.80 C 72.64 104.03 86.57 119.38 85.80 136.01 C 85.80 138.23 82.70 139.43 81.26 137.61 C 80.34 135.55 80.54 133.21 80.11 131.03 C 78.51 119.15 68.02 109.16 56.04 108.26 C 53.94 108.04 50.37 108.12 50.76 105.01 C 50.52 91.33 50.90 77.64 50.61 63.96 C 50.48 59.30 45.10 55.89 40.83 57.74 C 37.42 58.90 35.75 62.62 36.10 66.04 C 36.20 82.70 35.96 99.36 36.23 116.02 C 36.90 136.31 52.31 154.80 72.06 159.34 C 84.76 162.42 98.78 160.09 109.51 152.52 C 121.73 144.24 129.72 129.90 129.75 115.07 C 129.80 93.71 129.72 72.35 129.79 50.99 C 129.74 48.29 129.91 45.16 127.83 43.09 C 125.15 40.13 119.91 40.33 117.39 43.41 C 115.50 45.44 115.50 48.36 115.50 50.96 C 115.56 60.58 115.50 70.20 115.54 79.82 C 116.94 79.97 118.32 80.22 119.69 80.55 C 121.87 81.80 120.62 85.70 118.03 85.22 C 102.04 85.40 86.04 85.12 70.05 85.20 C 68.35 85.21 65.65 85.30 65.46 82.99 C 64.73 79.88 68.58 79.99 70.60 79.57 C 70.61 76.73 70.38 73.86 70.81 71.04 C 71.50 68.79 75.01 68.73 75.70 70.97 C 76.11 73.90 75.88 76.87 75.90 79.82 C 80.80 79.88 85.70 79.88 90.60 79.88 C 90.59 57.90 90.59 35.92 90.60 13.94 C 90.66 11.66 90.20 9.20 88.54 7.52 C 85.90 4.66 80.98 4.57 78.22 7.31 M 95.93 26.99 C 95.83 44.61 95.93 62.24 95.89 79.87 C 100.68 80.02 105.46 80.13 110.25 80.10 C 110.26 62.42 110.31 44.73 110.24 27.04 C 110.49 23.08 107.14 19.18 103.04 19.44 C 99.03 19.24 95.65 23.06 95.93 26.99 Z" />
</g>
</svg>
