<?xml version="1.0" encoding="UTF-8" ?>
<!DOCTYPE svg PUBLIC "-//W3C//DTD SVG 1.1//EN" "http://www.w3.org/Graphics/SVG/1.1/DTD/svg11.dtd">
<svg width="152pt" height="152pt" viewBox="0 0 152 152" version="1.1" xmlns="http://www.w3.org/2000/svg">
<g id="#000000ff">
<path  opacity="1.00" d=" M 54.15 15.21 C 57.35 10.85 63.30 11.86 68.01 11.73 C 77.56 12.07 87.18 11.17 96.70 12.23 C 105.85 13.70 110.77 22.16 116.40 28.52 C 119.12 31.96 123.38 33.47 127.55 34.25 C 129.96 31.03 133.61 28.47 137.84 29.46 C 140.56 29.33 142.03 33.15 139.75 34.75 C 137.79 35.38 135.73 35.56 133.71 35.86 C 133.65 44.54 133.59 53.22 133.76 61.91 C 137.83 62.00 141.91 62.01 146.00 62.01 C 146.23 55.07 145.52 48.08 146.31 41.19 C 147.06 38.31 150.34 39.19 152.00 40.70 L 152.00 66.43 C 147.18 69.31 141.21 67.66 135.89 67.96 C 132.46 68.28 129.85 65.93 127.78 63.51 C 120.70 63.23 113.26 64.30 106.55 61.43 C 99.60 58.57 94.90 52.42 89.47 47.50 C 86.39 44.28 82.54 41.64 80.35 37.69 C 77.83 32.65 81.61 26.01 87.18 25.44 C 92.18 24.58 95.70 28.90 99.03 31.87 C 101.88 34.72 105.37 37.01 107.66 40.37 C 108.81 42.83 105.54 45.57 103.42 43.69 C 98.57 40.23 94.85 35.42 90.02 31.95 C 88.10 30.12 84.66 32.49 85.63 34.94 C 88.24 38.74 92.04 41.49 95.21 44.79 C 99.88 49.12 104.07 54.54 110.39 56.52 C 116.00 58.15 121.92 57.41 127.68 57.53 C 127.69 51.75 127.69 45.96 127.66 40.18 C 123.80 39.50 119.78 38.78 116.50 36.47 C 110.36 32.32 107.14 25.23 101.42 20.65 C 96.74 17.02 90.53 17.63 84.98 17.62 C 76.99 17.82 68.98 17.35 61.00 17.79 C 58.08 17.84 57.07 21.89 59.34 23.55 C 64.45 24.87 69.81 23.47 74.97 24.42 C 77.48 24.87 77.56 29.34 74.99 29.72 C 69.75 30.38 64.36 30.33 59.11 29.70 C 52.79 28.57 49.94 20.00 54.15 15.21 Z" />
<path  opacity="1.00" d=" M 146.73 30.73 C 147.86 28.36 150.23 30.34 152.00 30.69 L 152.00 33.73 C 150.80 34.53 149.57 35.60 148.01 35.33 C 146.46 34.47 145.21 32.22 146.73 30.73 Z" />
<path  opacity="1.00" d=" M 65.34 32.42 C 67.28 31.98 69.43 33.89 68.80 35.91 C 68.53 37.95 65.88 38.90 64.24 37.77 C 62.18 36.52 62.82 32.70 65.34 32.42 Z" />
<path  opacity="1.00" d=" M 55.39 36.48 C 57.87 33.30 62.55 37.92 59.59 40.53 C 57.19 43.38 52.58 38.91 55.39 36.48 Z" />
<path  opacity="1.00" d=" M 49.38 40.36 C 51.76 39.64 54.11 42.64 52.58 44.69 C 51.90 46.26 49.57 46.61 48.29 45.60 C 46.37 44.30 46.97 40.69 49.38 40.36 Z" />
<path  opacity="1.00" d=" M 41.60 47.50 C 44.16 44.46 48.69 49.10 45.79 51.70 C 43.11 54.30 38.97 50.14 41.60 47.50 Z" />
<path  opacity="1.00" d=" M 37.28 54.56 C 39.43 52.88 42.72 55.43 41.67 57.90 C 41.30 59.71 38.82 60.68 37.36 59.48 C 35.56 58.61 35.60 55.44 37.28 54.56 Z" />
<path  opacity="1.00" d=" M 52.73 71.02 C 53.96 64.50 60.43 59.46 67.07 60.09 C 70.53 60.08 73.47 62.12 76.19 64.02 C 80.91 59.86 88.26 58.52 93.63 62.25 C 100.72 66.47 102.11 77.39 96.16 83.17 C 91.24 87.64 85.74 91.44 80.68 95.75 C 78.89 97.05 76.64 99.59 74.36 97.71 C 68.78 93.60 63.47 89.12 57.99 84.88 C 53.81 81.73 51.50 76.17 52.73 71.02 M 59.25 70.19 C 57.53 73.35 58.41 77.56 61.23 79.78 C 66.12 83.86 71.20 87.70 76.18 91.67 C 81.41 87.42 86.89 83.45 91.95 79.00 C 96.61 74.43 92.63 65.33 85.98 66.05 C 81.60 65.60 79.80 70.01 77.16 72.53 C 74.27 73.20 73.38 69.90 71.64 68.33 C 68.37 64.39 61.35 65.65 59.25 70.19 Z" />
<path  opacity="1.00" d=" M 33.51 63.36 C 36.23 60.16 40.89 65.18 37.66 67.60 C 35.02 70.04 31.23 65.99 33.51 63.36 Z" />
<path  opacity="1.00" d=" M 114.77 69.97 C 115.29 67.43 118.90 66.27 120.31 68.73 C 121.97 70.86 119.40 72.66 118.04 73.98 C 116.73 72.83 114.71 72.03 114.77 69.97 Z" />
<path  opacity="1.00" d=" M 33.41 71.42 C 35.12 70.64 37.50 72.06 37.37 73.97 C 37.83 76.13 35.00 77.87 33.24 76.81 C 30.89 75.96 31.05 72.15 33.41 71.42 Z" />
<path  opacity="1.00" d=" M 115.54 76.48 C 117.21 76.48 119.35 76.06 120.39 77.77 C 121.92 80.20 118.66 83.56 116.28 81.76 C 114.10 80.72 115.34 78.25 115.54 76.48 Z" />
<path  opacity="1.00" d=" M 33.46 80.64 C 36.47 78.21 40.07 83.65 36.70 85.51 C 33.60 87.77 30.19 82.54 33.46 80.64 Z" />
<path  opacity="1.00" d=" M 0.00 86.20 C 0.57 85.46 1.15 84.73 1.73 84.00 C 7.19 84.12 12.67 83.70 18.11 84.19 C 20.79 84.39 22.43 86.78 24.21 88.49 C 31.29 88.78 38.72 87.67 45.42 90.55 C 52.15 93.30 56.75 99.17 61.97 103.96 C 65.07 107.17 68.78 109.85 71.27 113.59 C 74.36 118.65 70.71 125.94 64.83 126.56 C 59.81 127.43 56.31 123.08 52.95 120.12 C 50.22 117.46 47.10 115.19 44.70 112.21 C 42.98 110.20 45.40 106.69 47.89 107.88 C 53.33 111.37 57.16 116.88 62.57 120.41 C 63.93 121.34 65.48 120.03 66.38 119.05 C 67.00 116.68 64.85 115.13 63.46 113.60 C 59.69 109.99 55.91 106.40 52.20 102.72 C 48.98 99.54 45.39 96.40 40.89 95.27 C 35.47 93.97 29.85 94.55 24.33 94.47 C 24.31 100.26 24.31 106.04 24.33 111.82 C 28.18 112.47 32.18 113.19 35.44 115.50 C 41.61 119.63 44.84 126.74 50.57 131.34 C 55.24 134.97 61.47 134.25 67.01 134.31 C 75.01 134.11 83.04 134.61 91.04 134.12 C 94.01 134.21 94.75 129.99 92.61 128.44 C 87.92 127.21 82.99 128.47 78.25 127.59 C 75.68 127.05 75.58 123.05 78.03 122.25 C 82.34 121.61 86.73 121.83 91.07 122.02 C 95.79 122.02 99.92 126.32 99.84 131.02 C 99.99 135.76 95.83 140.19 91.04 140.15 C 84.03 140.44 77.00 140.12 69.99 140.24 C 63.31 140.07 56.14 141.17 49.98 137.92 C 42.85 134.32 39.34 126.67 33.57 121.50 C 31.04 119.20 27.61 118.47 24.37 117.79 C 22.39 119.96 20.27 122.61 17.02 122.54 C 14.63 122.90 10.33 122.44 10.99 119.06 C 11.68 115.86 15.86 116.82 18.29 116.16 C 18.35 107.48 18.40 98.80 18.25 90.12 C 14.13 90.00 10.00 89.99 5.88 90.00 C 5.66 96.58 6.34 103.21 5.57 109.75 C 4.83 112.57 1.54 111.59 0.00 110.10 L 0.00 86.20 Z" />
<path  opacity="1.00" d=" M 114.44 85.53 C 117.76 83.33 120.99 88.73 117.61 90.56 C 114.47 92.61 111.35 87.51 114.44 85.53 Z" />
<path  opacity="1.00" d=" M 111.48 93.48 C 114.83 91.87 117.26 97.37 113.91 98.85 C 110.45 100.89 107.75 94.73 111.48 93.48 Z" />
<path  opacity="1.00" d=" M 105.37 101.40 C 107.82 98.46 112.32 102.90 109.52 105.46 C 107.11 108.54 102.37 103.87 105.37 101.40 Z" />
<path  opacity="1.00" d=" M 99.19 107.04 C 102.10 104.83 105.59 109.61 102.68 111.72 C 99.72 114.65 95.77 109.02 99.19 107.04 Z" />
<path  opacity="1.00" d=" M 91.42 111.57 C 94.63 108.90 97.96 114.69 94.65 116.47 C 91.55 118.56 88.29 113.46 91.42 111.57 Z" />
<path  opacity="1.00" d=" M 82.48 114.64 C 83.59 113.22 86.34 113.50 87.15 115.16 C 88.42 116.76 87.00 119.57 84.96 119.56 C 82.41 120.12 80.38 116.40 82.48 114.64 Z" />
<path  opacity="1.00" d=" M 0.00 118.28 C 1.26 117.32 3.19 115.78 4.69 117.21 C 6.63 118.52 6.00 121.61 3.91 122.43 C 2.58 122.15 1.30 121.72 0.00 121.37 L 0.00 118.28 Z" />
</g>
</svg>
