<?xml version="1.0" encoding="UTF-8" ?>
<!DOCTYPE svg PUBLIC "-//W3C//DTD SVG 1.1//EN" "http://www.w3.org/Graphics/SVG/1.1/DTD/svg11.dtd">
<svg width="144pt" height="144pt" viewBox="0 0 144 144" version="1.1" xmlns="http://www.w3.org/2000/svg">
<g id="#000000ff">
<path  opacity="1.00" d=" M 61.57 0.00 L 67.52 0.00 C 78.27 0.85 88.60 6.23 95.19 14.80 C 101.21 22.40 104.12 32.35 103.29 42.00 C 102.77 48.14 97.18 53.46 90.95 53.33 C 85.20 53.56 79.62 49.30 78.55 43.61 C 77.76 39.24 78.45 34.25 75.39 30.61 C 71.49 25.05 63.12 23.60 57.56 27.51 C 53.76 29.99 51.57 34.49 51.70 39.00 C 51.61 46.94 51.72 54.88 51.69 62.82 C 69.12 62.84 86.56 62.79 103.99 62.83 C 108.20 62.66 112.48 64.50 114.87 68.05 C 117.30 71.17 117.25 75.29 117.25 79.04 C 117.10 96.68 117.35 114.33 117.13 131.97 C 117.13 138.20 111.87 143.35 105.81 144.00 L 23.11 144.00 C 17.48 142.76 12.65 137.95 12.63 131.97 C 12.43 113.64 12.63 95.31 12.53 76.98 C 12.43 73.12 13.41 69.03 16.37 66.35 C 18.91 63.56 22.80 63.00 26.34 62.56 C 26.42 54.37 26.23 46.18 26.42 37.99 C 26.65 29.15 29.92 20.44 35.65 13.71 C 42.06 5.95 51.62 1.16 61.57 0.00 M 59.97 7.62 C 45.78 9.73 34.25 22.71 33.73 37.02 C 33.52 45.62 33.70 54.22 33.65 62.82 C 37.23 62.82 40.80 62.82 44.37 62.82 C 44.47 54.51 44.28 46.20 44.46 37.90 C 44.61 32.09 47.35 26.44 51.86 22.76 C 57.58 17.85 66.17 16.62 73.03 19.77 C 80.12 22.87 85.12 30.24 85.29 37.99 C 85.53 40.32 85.04 43.23 87.21 44.82 C 90.00 47.58 95.31 45.86 95.96 42.02 C 96.47 37.45 95.95 32.73 94.49 28.37 C 89.91 14.35 74.54 4.92 59.97 7.62 M 23.18 70.32 C 20.86 71.18 19.62 73.58 19.79 75.99 C 19.71 93.65 19.82 111.31 19.74 128.97 C 19.82 130.79 19.66 132.78 20.61 134.41 C 21.72 136.21 23.91 136.81 25.91 136.74 C 51.96 136.76 78.01 136.77 104.06 136.74 C 107.29 137.12 110.29 134.37 110.02 131.08 C 110.10 113.06 110.01 95.03 110.06 77.01 C 110.51 73.84 108.62 70.06 105.08 70.06 C 80.40 69.87 55.70 70.06 31.01 69.97 C 28.41 70.02 25.75 69.74 23.18 70.32 Z" />
<path  opacity="1.00" d=" M 125.29 32.26 C 128.18 29.60 133.25 33.39 130.85 36.77 C 127.98 39.73 123.80 41.12 120.40 43.43 C 118.17 44.54 115.39 47.11 112.96 45.00 C 110.89 43.73 111.25 40.40 113.28 39.26 C 117.17 36.74 121.29 34.60 125.29 32.26 Z" />
<path  opacity="1.00" d=" M 113.43 53.55 C 115.67 52.25 117.91 54.15 119.84 55.15 C 123.34 57.36 127.17 59.07 130.47 61.59 C 132.94 63.91 130.25 68.47 127.01 67.46 C 122.33 65.14 117.81 62.43 113.36 59.69 C 110.96 58.46 111.03 54.73 113.43 53.55 Z" />
<path  opacity="1.00" d=" M 50.69 85.67 C 54.25 78.59 63.41 75.17 70.73 78.21 C 78.18 80.94 82.72 89.70 80.47 97.35 C 79.80 100.60 77.33 102.95 75.79 105.77 C 75.44 112.54 75.92 119.33 75.64 126.10 C 75.74 128.00 73.97 129.74 72.08 129.60 C 67.35 129.72 62.60 129.70 57.87 129.61 C 55.95 129.80 54.12 128.10 54.13 126.18 C 53.89 119.19 54.25 112.18 53.98 105.18 C 48.82 100.26 47.06 91.98 50.69 85.67 M 56.32 95.45 C 56.79 98.97 61.39 100.33 61.20 104.00 C 61.33 110.14 61.19 116.29 61.22 122.44 C 63.65 122.47 66.08 122.49 68.52 122.51 C 68.73 115.70 68.13 108.86 68.81 102.08 C 70.43 99.75 73.17 97.99 73.56 94.97 C 74.82 89.75 70.35 84.21 64.99 84.35 C 59.36 84.06 54.67 90.03 56.32 95.45 Z" />
</g>
</svg>
