<?xml version="1.0" encoding="UTF-8" ?>
<!DOCTYPE svg PUBLIC "-//W3C//DTD SVG 1.1//EN" "http://www.w3.org/Graphics/SVG/1.1/DTD/svg11.dtd">
<svg width="138pt" height="138pt" viewBox="0 0 138 138" version="1.1" xmlns="http://www.w3.org/2000/svg">
<g id="#000000ff">
<path  opacity="1.00" d=" M 43.18 16.02 C 43.78 11.87 47.95 9.02 52.02 9.27 C 63.36 9.25 74.71 9.24 86.05 9.27 C 90.06 9.05 94.16 11.86 94.79 15.93 C 95.27 19.86 94.99 23.84 94.93 27.79 C 102.61 27.85 110.30 27.75 117.98 27.81 C 123.32 27.80 128.90 29.37 132.73 33.25 C 135.85 36.23 137.30 40.47 138.00 44.63 L 138.00 111.41 C 137.41 116.07 135.69 120.85 132.01 123.96 C 127.93 127.56 122.35 128.81 117.02 128.77 C 85.00 128.75 52.97 128.75 20.95 128.76 C 15.86 128.78 10.53 127.70 6.51 124.39 C 2.53 121.34 0.64 116.37 0.00 111.53 L 0.00 44.71 C 0.61 41.00 1.72 37.21 4.24 34.32 C 7.83 29.98 13.52 27.87 19.06 27.80 C 27.04 27.65 35.03 27.81 43.02 27.74 C 43.02 23.83 42.76 19.91 43.18 16.02 M 48.77 16.95 C 48.45 20.52 48.72 24.11 48.61 27.68 C 62.18 27.85 75.76 27.67 89.34 27.78 C 89.24 23.91 89.80 19.97 89.05 16.15 C 88.35 14.46 86.40 14.96 84.96 14.81 C 74.30 14.82 63.63 14.82 52.97 14.81 C 51.43 14.90 48.76 14.74 48.77 16.95 M 18.41 33.57 C 15.32 33.84 12.10 34.60 9.75 36.76 C 6.52 39.49 5.66 43.98 5.63 48.01 C 5.64 68.00 5.66 87.99 5.62 107.97 C 5.60 111.87 6.23 116.11 9.02 119.05 C 11.77 122.05 16.03 123.04 19.97 122.94 C 52.65 122.92 85.32 122.93 118.00 122.94 C 121.97 123.04 126.26 122.06 129.01 119.01 C 131.76 116.08 132.40 111.87 132.38 108.01 C 132.35 88.01 132.36 68.01 132.37 48.01 C 132.38 43.94 131.41 39.49 128.21 36.72 C 124.93 33.77 120.24 33.48 116.04 33.46 C 83.50 33.57 50.95 33.35 18.41 33.57 Z" />
<path  opacity="1.00" d=" M 56.60 52.40 C 56.85 50.32 58.98 48.99 60.97 49.05 C 66.34 48.94 71.72 48.95 77.10 49.05 C 79.05 49.01 81.20 50.37 81.42 52.42 C 81.75 56.58 81.45 60.76 81.54 64.93 C 85.74 65.03 89.95 64.68 94.13 65.11 C 95.99 65.37 97.37 67.15 97.29 69.00 C 97.52 73.99 97.32 78.98 97.39 83.97 C 97.46 86.11 97.16 88.91 94.79 89.71 C 90.40 90.39 85.93 89.84 81.52 90.01 C 81.41 94.19 81.75 98.38 81.37 102.55 C 81.12 104.59 79.05 105.94 77.08 105.77 C 71.70 105.85 66.32 105.85 60.94 105.77 C 59.02 105.90 56.89 104.67 56.61 102.65 C 56.23 98.45 56.56 94.22 56.46 90.01 C 52.28 89.91 48.09 90.23 43.93 89.86 C 41.61 89.61 40.44 87.12 40.64 85.00 C 40.62 79.68 40.51 74.35 40.70 69.03 C 40.63 67.14 41.99 65.30 43.91 65.04 C 48.08 64.64 52.27 64.98 56.46 64.88 C 56.56 60.72 56.23 56.55 56.60 52.40 M 62.11 54.78 C 62.00 59.21 62.30 63.65 61.99 68.07 C 62.01 69.29 60.82 70.48 59.61 70.50 C 55.19 70.77 50.76 70.52 46.33 70.58 C 46.30 75.19 46.25 79.80 46.38 84.42 C 50.60 84.42 54.83 84.23 59.06 84.42 C 60.48 84.27 62.03 85.37 61.99 86.89 C 62.30 91.30 62.01 95.73 62.11 100.16 C 66.70 100.17 71.30 100.17 75.89 100.16 C 75.99 95.74 75.70 91.31 76.01 86.90 C 75.95 85.76 76.99 84.59 78.12 84.51 C 82.62 84.14 87.15 84.47 91.67 84.38 C 91.71 79.77 91.72 75.15 91.65 70.54 C 87.22 70.49 82.79 70.75 78.37 70.47 C 77.14 70.43 75.90 69.26 75.98 67.99 C 75.69 63.60 75.96 59.19 75.87 54.78 C 71.28 54.77 66.70 54.77 62.11 54.78 Z" />
</g>
</svg>
