<svg xmlns="http://www.w3.org/2000/svg" width="48" height="48" viewBox="0 0 48 48"><g><g><g><g><g><path  d="M48 12.8c0 1.765-1.435 3.2-3.2 3.2a3.203 3.203 0 0 1-3.2-3.2c0-1.765 1.435-3.2 3.2-3.2 1.765 0 3.2 1.435 3.2 3.2zm-1.6 0c0-.883-.718-1.6-1.6-1.6-.882 0-1.6.718-1.6 1.6 0 .882.718 1.6 1.6 1.6.882 0 1.6-.718 1.6-1.6z"/></g></g></g><g><g><g><path  d="M6.4 39.2c0 1.765-1.435 3.2-3.2 3.2A3.203 3.203 0 0 1 0 39.2C0 37.435 1.435 36 3.2 36c1.765 0 3.2 1.435 3.2 3.2zm-1.6 0c0-.883-.718-1.6-1.6-1.6-.883 0-1.6.718-1.6 1.6 0 .882.718 1.6 1.6 1.6.882 0 1.6-.718 1.6-1.6z"/></g></g></g><g><g><g><path  d="M43.25 10.612L36.347 7.28a.8.8 0 1 0-.696 1.44l6.902 3.333a.798.798 0 0 0 1.068-.373.8.8 0 0 0-.373-1.068z"/></g></g></g><g><g><g><path  d="M39.2 44.8c0 1.765-1.435 3.2-3.2 3.2a3.203 3.203 0 0 1-3.2-3.2c0-1.765 1.435-3.2 3.2-3.2 1.765 0 3.2 1.435 3.2 3.2zm-1.6 0c0-.882-.718-1.6-1.6-1.6-.882 0-1.6.718-1.6 1.6 0 .882.718 1.6 1.6 1.6.882 0 1.6-.717 1.6-1.6z"/></g></g></g><g><g><g><path  d="M34.45 42.612l-6.902-3.332a.8.8 0 0 0-.695 1.44l6.901 3.333a.799.799 0 0 0 1.068-.373.8.8 0 0 0-.373-1.068z"/></g></g></g><g><g><g><path  d="M27.2 24.8c0 1.765-1.435 3.2-3.2 3.2a3.203 3.203 0 0 1-3.2-3.2c0-1.765 1.435-3.2 3.2-3.2 1.765 0 3.2 1.435 3.2 3.2zm-1.6 0c0-.883-.718-1.6-1.6-1.6-.882 0-1.6.718-1.6 1.6 0 .882.718 1.6 1.6 1.6.882 0 1.6-.718 1.6-1.6z"/></g></g></g><g><g><g><path  d="M22.594 22.7l-5.302-4.132a.8.8 0 0 0-.984 1.262l5.302 4.133a.798.798 0 0 0 1.123-.14.8.8 0 0 0-.14-1.123z"/></g></g></g><g><g><g><path  d="M47.2 29.6c0 4.852-3.948 8.8-8.8 8.8s-8.8-3.948-8.8-8.8 3.948-8.8 8.8-8.8 8.8 3.948 8.8 8.8zm-1.6 0c0-3.97-3.23-7.2-7.2-7.2s-7.2 3.23-7.2 7.2 3.23 7.2 7.2 7.2 7.2-3.23 7.2-7.2z"/></g></g></g><g><g><g><path  d="M41.6 27.2c0 1.765-1.435 3.2-3.2 3.2a3.203 3.203 0 0 1-3.2-3.2c0-1.765 1.435-3.2 3.2-3.2 1.765 0 3.2 1.435 3.2 3.2zm-1.6 0c0-.882-.718-1.6-1.6-1.6-.882 0-1.6.718-1.6 1.6 0 .882.718 1.6 1.6 1.6.882 0 1.6-.718 1.6-1.6z"/></g></g></g><g><g><g><path  d="M40.72 32c1.368 0 2.48 1.082 2.48 2.413v2.109a.8.8 0 0 1-.4.692 8.8 8.8 0 0 1-4.4 1.186 8.8 8.8 0 0 1-4.4-1.186.8.8 0 0 1-.4-.693v-2.109c0-1.33 1.112-2.412 2.48-2.412zm.88 4.044v-1.631c0-.448-.395-.813-.88-.813h-4.64c-.486 0-.88.365-.88.813v1.631a7.254 7.254 0 0 0 6.4 0z"/></g></g></g><g><g><g><path  d="M28 39.2c0 4.852-3.948 8.8-8.8 8.8s-8.8-3.948-8.8-8.8 3.948-8.8 8.8-8.8 8.8 3.948 8.8 8.8zm-1.6 0c0-3.97-3.23-7.2-7.2-7.2S12 35.23 12 39.2s3.23 7.2 7.2 7.2 7.2-3.23 7.2-7.2z"/></g></g></g><g><g><g><path  d="M22.4 36.8c0 1.765-1.435 3.2-3.2 3.2a3.203 3.203 0 0 1-3.2-3.2c0-1.765 1.435-3.2 3.2-3.2 1.765 0 3.2 1.435 3.2 3.2zm-1.6 0c0-.882-.718-1.6-1.6-1.6-.882 0-1.6.718-1.6 1.6 0 .882.718 1.6 1.6 1.6.882 0 1.6-.718 1.6-1.6z"/></g></g></g><g><g><g><path  d="M21.52 41.6c1.368 0 2.48 1.082 2.48 2.413v2.109a.8.8 0 0 1-.4.692A8.799 8.799 0 0 1 19.2 48c-1.538 0-3.06-.41-4.4-1.186a.8.8 0 0 1-.4-.693v-2.109c0-1.33 1.112-2.412 2.48-2.412zm.88 4.044v-1.631c0-.448-.395-.813-.88-.813h-4.64c-.486 0-.88.365-.88.813v1.631a7.254 7.254 0 0 0 6.4 0z"/></g></g></g><g><g><g><path  d="M17.6 19.2c0 4.852-3.948 8.8-8.8 8.8S0 24.052 0 19.2s3.948-8.8 8.8-8.8 8.8 3.948 8.8 8.8zm-1.6 0c0-3.97-3.23-7.2-7.2-7.2s-7.2 3.23-7.2 7.2 3.23 7.2 7.2 7.2 7.2-3.23 7.2-7.2z"/></g></g></g><g><g><g><path  d="M12 16.8c0 1.765-1.435 3.2-3.2 3.2a3.203 3.203 0 0 1-3.2-3.2c0-1.765 1.435-3.2 3.2-3.2 1.765 0 3.2 1.435 3.2 3.2zm-1.6 0c0-.883-.718-1.6-1.6-1.6-.883 0-1.6.717-1.6 1.6 0 .882.718 1.6 1.6 1.6.882 0 1.6-.718 1.6-1.6z"/></g></g></g><g><g><g><path  d="M11.12 21.6c1.368 0 2.48 1.082 2.48 2.413v2.109a.8.8 0 0 1-.4.692A8.8 8.8 0 0 1 8.8 28c-1.538 0-3.06-.41-4.4-1.186a.8.8 0 0 1-.4-.693v-2.109c0-1.33 1.112-2.412 2.48-2.412zm.88 4.044v-1.631c0-.448-.395-.813-.88-.813H6.48c-.486 0-.88.365-.88.813v1.631a7.254 7.254 0 0 0 6.4 0z"/></g></g></g><g><g><g><path  d="M36.8 8.8c0 4.852-3.948 8.8-8.8 8.8s-8.8-3.948-8.8-8.8S23.148 0 28 0s8.8 3.948 8.8 8.8zm-1.6 0c0-3.97-3.23-7.2-7.2-7.2s-7.2 3.23-7.2 7.2S24.03 16 28 16s7.2-3.23 7.2-7.2z"/></g></g></g><g><g><g><path  d="M31.2 6.4c0 1.765-1.435 3.2-3.2 3.2a3.203 3.203 0 0 1-3.2-3.2c0-1.765 1.435-3.2 3.2-3.2 1.765 0 3.2 1.435 3.2 3.2zm-1.6 0c0-.883-.718-1.6-1.6-1.6-.882 0-1.6.718-1.6 1.6 0 .882.718 1.6 1.6 1.6.882 0 1.6-.718 1.6-1.6z"/></g></g></g><g><g><g><path  d="M30.32 11.2c1.368 0 2.48 1.082 2.48 2.413v2.109a.8.8 0 0 1-.4.692A8.799 8.799 0 0 1 28 17.6c-1.538 0-3.06-.41-4.4-1.186a.8.8 0 0 1-.4-.693v-2.109c0-1.33 1.112-2.412 2.48-2.412zm.88 4.044v-1.631c0-.448-.395-.813-.88-.813h-4.64c-.486 0-.88.365-.88.813v1.631a7.254 7.254 0 0 0 6.4 0z"/></g></g></g><g><g><g><path  d="M20.612 8.28a.801.801 0 0 0-1.128-.088l-5.544 4.744a.8.8 0 1 0 1.04 1.215l5.544-4.744a.8.8 0 0 0 .088-1.128z"/></g></g></g><g><g><g><path  d="M38.24 21.12l-4.8-6.4a.8.8 0 0 0-1.28.959l4.8 6.4a.8.8 0 0 0 1.28-.96z"/></g></g></g><g><g><g><path  d="M31.679 32.25a.8.8 0 0 0-1.12-.16L26.09 35.44a.8.8 0 1 0 .96 1.28l4.469-3.352a.799.799 0 0 0 .16-1.119z"/></g></g></g><g><g><g><path  d="M11.2 38.4H5.6a.8.8 0 1 0 0 1.6h5.6a.8.8 0 1 0 0-1.6z"/></g></g></g><g><g><g><path  d="M12 3.2c0 1.765-1.435 3.2-3.2 3.2a3.203 3.203 0 0 1-3.2-3.2C5.6 1.435 7.035 0 8.8 0 10.565 0 12 1.435 12 3.2zm-1.6 0c0-.883-.718-1.6-1.6-1.6-.882 0-1.6.718-1.6 1.6 0 .882.718 1.6 1.6 1.6.882 0 1.6-.718 1.6-1.6z"/></g></g></g><g><g><g><path  d="M8.8 4.8a.8.8 0 0 0-.8.8v5.6a.8.8 0 1 0 1.6 0V5.6a.8.8 0 0 0-.8-.8z"/></g></g></g></g></g></svg>
