<svg xmlns="http://www.w3.org/2000/svg" width="56" height="50" viewBox="0 0 56 50"><g><g><g><g><g><path  d="M1.65 2.16h31.61V.51H0v48.987h40.272v-1.65H1.65z"/></g><g><path  d="M35.888.51v1.65h18.46v7.116H4.33v1.65h50.018v36.92H42.9v1.651h13.097V.51z"/></g><g><path  d="M6.083 4.89H4.33v1.65h1.753z"/></g><g><path  d="M9.593 4.89H7.84v1.65h1.753z"/></g><g><path  d="M51.673 4.89H49.92v1.65h1.753z"/></g><g><path  d="M8.77 16.23v9.591h9.591v-1.65h-7.94V16.23z"/></g><g><path  d="M8.77 42.481h9.591v-1.65h-7.94V32.89H8.77z"/></g><g><path  d="M19.523 14.77l-4.676 4.676-1.17-1.17-1.167 1.167 2.337 2.337 5.843-5.843z"/></g><g><path  d="M13.677 34.936l-1.167 1.167 2.337 2.337 5.843-5.843-1.167-1.167-4.676 4.676z"/></g><g><path  d="M26.243 16.29H24.49v1.65h1.753z"/></g><g><path  d="M29.753 16.29H28v1.65h1.753z"/></g><g><path  d="M33.263 16.29H31.51v1.65h1.753z"/></g><g><path  d="M26.243 32.94H24.49v1.65h1.753z"/></g><g><path  d="M29.753 32.94H28v1.65h1.753z"/></g><g><path  d="M33.263 32.94H31.51v1.65h1.753z"/></g><g><path  d="M47.282 19.79H24.49v1.65h22.792z"/></g><g><path  d="M43.775 23.3H24.49v1.65h19.285z"/></g><g><path  d="M47.282 36.45H24.49v1.65h22.792z"/></g><g><path  d="M43.775 39.95H24.49v1.65h19.285z"/></g></g></g></g></g></svg>
