<svg xmlns="http://www.w3.org/2000/svg" width="54" height="61" viewBox="0 0 54 61"><g><g><g><path  d="M38.633 43.717v6.1h15.25v2.033h-15.25v4.067A5.09 5.09 0 0 1 33.55 61H5.083A5.09 5.09 0 0 1 0 55.917V5.083A5.09 5.09 0 0 1 5.083 0H33.55a5.09 5.09 0 0 1 5.083 5.083V9.15h12.2a3.05 3.05 0 0 1 3.05 3.05v28.467a3.05 3.05 0 0 1-3.05 3.05zm12.2-2.034a1.017 1.017 0 0 0 1.017-1.016V17.283H17.283v23.384a1.017 1.017 0 0 0 1.017 1.016zM51.85 12.2a1.017 1.017 0 0 0-1.017-1.017H18.3a1.017 1.017 0 0 0-1.017 1.017v3.05H51.85zM13.217 4.067h12.2V2.033h-12.2zM36.6 43.717H18.3a3.05 3.05 0 0 1-3.05-3.05V12.2a3.05 3.05 0 0 1 3.05-3.05h18.3V5.083a3.05 3.05 0 0 0-3.05-3.05h-6.1v2.034A2.033 2.033 0 0 1 25.417 6.1h-12.2a2.033 2.033 0 0 1-2.034-2.033V2.033h-6.1a3.05 3.05 0 0 0-3.05 3.05v50.834a3.05 3.05 0 0 0 3.05 3.05H33.55a3.05 3.05 0 0 0 3.05-3.05V51.85h-2.22a3.031 3.031 0 0 1-5.726 0h-6.287v-2.033h6.287a3.032 3.032 0 0 1 5.726 0h2.22zm-4.364 6.397a1.017 1.017 0 1 0-1.438 1.439 1.017 1.017 0 0 0 1.438-1.439z"/></g><g><path  d="M19.32 12.2h2.033v2.033H19.32z"/></g><g><path  d="M23.38 12.2h2.033v2.033H23.38z"/></g><g><path  d="M27.45 12.2h2.033v2.033H27.45z"/></g><g><path  d="M37.934 27.791a2.033 2.033 0 0 1 0 3.384l-3.253 2.167a2.033 2.033 0 0 1-3.161-1.695v-4.335a2.033 2.033 0 0 1 3.159-1.692l3.253 2.167zm-1.127 1.688l-3.254-2.167v4.34z"/></g><g><path  d="M41.037 23.013a9.16 9.16 0 0 1 2.683 6.467 9.15 9.15 0 1 1-9.15-9.15 9.16 9.16 0 0 1 6.467 2.683zM39.6 34.51a7.126 7.126 0 0 0 2.087-5.03 7.117 7.117 0 1 0-7.117 7.117 7.126 7.126 0 0 0 5.03-2.087z"/></g><g><path  d="M18.3 48.8h2.033v4.067H18.3z"/></g><g><path  d="M15.25 48.8h2.033v4.067H15.25z"/></g><g><path  d="M20.33 28.47h2.033v2.033H20.33z"/></g><g><path  d="M20.33 24.4h2.033v2.033H20.33z"/></g><g><path  d="M20.33 32.53h2.033v2.033H20.33z"/></g></g></g></svg>
