<?xml version="1.0" encoding="UTF-8" ?>
<!DOCTYPE svg PUBLIC "-//W3C//DTD SVG 1.1//EN" "http://www.w3.org/Graphics/SVG/1.1/DTD/svg11.dtd">
<svg width="166pt" height="166pt" viewBox="0 0 166 166" version="1.1" xmlns="http://www.w3.org/2000/svg">
<g id="#000000ff">
<path  opacity="1.00" d=" M 78.61 0.00 L 87.26 0.00 C 107.30 1.26 126.93 9.61 141.15 23.89 C 155.97 38.18 164.69 58.19 166.00 78.66 L 166.00 87.31 C 164.80 106.38 157.20 125.08 144.14 139.09 C 129.69 155.08 108.82 164.69 87.37 166.00 L 78.04 166.00 C 58.25 164.54 38.90 156.26 24.82 142.15 C 10.03 127.85 1.28 107.86 0.00 87.39 L 0.00 78.03 C 1.50 57.29 10.60 37.10 25.84 22.85 C 39.96 9.21 59.07 1.25 78.61 0.00 M 72.15 6.29 C 47.24 9.61 24.60 26.02 13.59 48.60 C 5.68 64.36 3.57 82.86 7.42 100.04 C 11.25 117.24 21.21 132.98 35.08 143.83 C 47.30 153.53 62.54 159.41 78.13 160.29 C 97.64 161.62 117.57 155.13 132.49 142.48 C 143.41 133.53 151.66 121.43 156.27 108.10 C 162.35 90.45 161.80 70.58 154.57 53.35 C 147.12 35.27 132.56 20.24 114.68 12.31 C 101.46 6.29 86.52 4.33 72.15 6.29 Z" />
<path  opacity="1.00" d=" M 75.17 28.28 C 82.30 27.24 89.72 27.50 96.66 29.49 C 99.01 30.53 98.39 34.07 96.00 34.64 C 91.35 34.07 86.74 32.98 82.02 33.25 C 76.13 33.18 70.46 34.84 64.85 36.38 C 62.32 37.18 60.46 33.27 62.67 31.72 C 66.54 29.74 70.91 28.99 75.17 28.28 Z" />
<path  opacity="1.00" d=" M 47.06 44.93 C 46.69 42.78 48.90 40.65 50.97 41.83 C 52.80 42.46 52.46 44.49 52.56 46.01 C 52.56 53.36 52.52 60.71 52.55 68.05 C 55.26 71.08 58.93 73.50 60.78 77.14 C 60.23 93.40 59.09 109.66 58.49 125.93 C 57.99 128.98 61.95 131.04 64.35 129.31 C 66.57 128.02 65.83 125.12 65.93 123.00 C 65.13 107.65 64.30 92.29 63.72 76.94 C 65.77 73.43 69.28 71.05 71.94 68.02 C 72.07 59.98 71.75 51.92 72.08 43.89 C 72.04 40.77 77.41 40.83 77.35 43.97 C 77.67 51.62 77.37 59.30 77.49 66.96 C 78.18 72.60 71.43 74.62 69.32 78.99 C 69.89 94.65 70.91 110.31 71.55 125.98 C 71.98 132.28 64.94 137.32 59.09 135.02 C 55.04 133.58 52.46 129.24 52.93 124.99 C 53.86 109.56 54.35 94.10 55.35 78.67 C 52.79 75.65 49.41 73.31 47.22 70.01 C 46.78 61.67 47.09 53.28 47.06 44.93 Z" />
<path  opacity="1.00" d=" M 56.27 42.28 C 57.69 40.64 60.81 41.84 60.78 44.02 C 61.02 51.36 60.91 58.73 60.84 66.08 C 61.05 68.06 58.95 69.77 57.08 68.89 C 55.35 68.46 55.39 66.42 55.37 65.02 C 55.35 58.68 55.36 52.33 55.36 45.99 C 55.56 44.78 55.13 43.12 56.27 42.28 Z" />
<path  opacity="1.00" d=" M 64.42 42.42 C 66.19 40.23 69.75 42.35 69.10 44.95 C 69.09 52.31 69.32 59.69 68.97 67.03 C 68.51 70.33 63.07 69.29 63.65 66.04 C 63.70 58.38 63.28 50.67 63.88 43.03 L 64.42 42.42 Z" />
<path  opacity="1.00" d=" M 92.14 49.14 C 94.15 44.17 99.61 40.99 104.93 41.59 C 109.57 41.99 113.85 45.18 115.50 49.55 C 118.31 56.96 120.15 65.19 117.98 73.01 C 116.97 76.59 114.11 79.17 111.19 81.25 C 111.65 95.19 112.34 109.11 113.03 123.03 C 113.68 127.28 112.58 132.27 108.41 134.34 C 102.87 137.78 94.42 133.61 94.45 126.91 C 94.86 111.69 95.89 96.50 96.34 81.28 C 93.41 79.20 90.60 76.62 89.54 73.06 C 87.29 65.09 89.27 56.68 92.14 49.14 M 101.35 47.46 C 97.19 48.72 96.51 53.50 95.40 57.06 C 93.97 62.44 92.97 68.85 96.13 73.80 C 97.58 76.32 102.24 76.40 101.86 79.91 C 101.50 95.31 100.49 110.69 99.94 126.09 C 99.25 131.12 108.39 131.09 107.54 126.02 C 107.02 110.67 106.06 95.32 105.57 79.96 C 105.34 76.10 110.81 76.20 111.95 72.86 C 115.03 66.20 112.74 58.61 110.52 52.02 C 109.44 48.27 105.01 46.05 101.35 47.46 Z" />
<path  opacity="1.00" d=" M 121.29 47.23 C 122.33 45.86 124.61 46.16 125.46 47.60 C 134.63 58.38 139.22 72.88 138.17 86.97 C 137.24 100.07 131.50 112.83 122.10 122.04 C 120.27 124.41 116.21 121.81 117.63 119.14 C 120.10 115.80 123.17 112.91 125.26 109.28 C 136.05 92.42 135.09 68.99 122.78 53.16 C 121.61 51.53 119.19 49.07 121.29 47.23 Z" />
<path  opacity="1.00" d=" M 38.39 50.38 C 39.99 48.14 42.92 49.80 43.65 51.92 C 39.09 58.94 35.03 66.50 33.87 74.91 C 31.26 90.27 36.42 106.58 47.29 117.71 C 50.40 119.83 46.76 124.75 43.98 122.09 C 34.73 113.17 29.05 100.72 27.93 87.94 C 26.65 74.72 30.46 61.03 38.39 50.38 Z" />
<path  opacity="1.00" d=" M 75.11 132.92 C 79.64 132.15 84.40 133.07 89.02 132.56 C 92.21 131.83 93.05 137.42 89.94 137.75 C 85.35 138.62 80.52 138.62 75.93 137.72 C 73.80 137.28 73.60 134.22 75.11 132.92 Z" />
</g>
</svg>
