<svg xmlns="http://www.w3.org/2000/svg" width="62" height="72" viewBox="0 0 62 72"><g><g><g><path  d="M61.591 25.542c0 .775-.09 1.55-.266 2.305a12.243 12.243 0 0 1-.749 2.1c-.011 0-.023.035-.035.057-.771 1.438-2.014 2.786-3.694 4.013-4.135 3.02-10.599 5.125-18.05 5.967l-3.732 6.758h2.812a1.493 1.493 0 0 1 1.298.713c.03.042.055.086.078.131v-1.903a1.513 1.513 0 1 1 3.026 0v7.263a1.513 1.513 0 1 1-3.026 0V48.83c-.014.032-.026.064-.043.095L27.254 71.203a1.513 1.513 0 0 1-2.844-.782l.6-13.607-3.652.603a1.512 1.512 0 0 1-1.76-1.497l.051-16.596c-4.522-.852-8.545-2.2-11.697-3.968-1.823-1.022-3.309-2.164-4.413-3.394a12.753 12.753 0 0 1 9.799-20.93h.048C16.66 4.222 23.47 0 31.021 0a19.61 19.61 0 0 1 19.223 15.728l.047-.007c.459-.064.92-.097 1.383-.097 5.475.007 9.911 4.443 9.917 9.918zM35.168 40.267c-1.261.072-2.538.108-3.833.108a65.607 65.607 0 0 1-8.661-.565l-.044 14.331 3.727-.615a1.517 1.517 0 0 1 1.759 1.568l-.39 8.855 7.622-14.18h-2.85A1.534 1.534 0 0 1 31.194 49a1.556 1.556 0 0 1-.02-1.523zm21.598-19.363a6.898 6.898 0 0 0-7.283-1.898 1.513 1.513 0 0 1-1.985-1.261 16.584 16.584 0 0 0-31.764-4.574 1.512 1.512 0 0 1-1.529.918 9.736 9.736 0 0 0-8.404 15.863c.882.979 2.103 1.908 3.631 2.765 5.25 2.942 13.233 4.63 21.904 4.63 9.741 0 18.833-2.22 23.726-5.794 1.315-.96 2.263-1.972 2.816-3.01.22-.449.387-.921.502-1.407a6.897 6.897 0 0 0-1.615-6.232z"/></g><g><path  d="M37.746 66.566v-7.263a1.513 1.513 0 1 0-3.026 0v7.263a1.513 1.513 0 1 0 3.026 0z"/></g><g><path  d="M45.313 68.08c.836 0 1.513-.678 1.513-1.514v-7.263a1.513 1.513 0 1 0-3.026 0v7.263c0 .836.677 1.513 1.513 1.513z"/></g><g><path  d="M51.36 66.566a1.513 1.513 0 1 0 3.026 0v-7.263a1.513 1.513 0 1 0-3.026 0z"/></g><g><path  d="M19.586 66.566v-7.263a1.513 1.513 0 1 0-3.026 0v7.263a1.513 1.513 0 1 0 3.026 0z"/></g><g><path  d="M10.506 66.566v-7.263a1.513 1.513 0 1 0-3.026 0v7.263a1.513 1.513 0 1 0 3.026 0z"/></g><g><path  d="M49.853 44.17c-.836 0-1.513.677-1.513 1.513v7.263a1.513 1.513 0 1 0 3.026 0v-7.263c0-.836-.677-1.513-1.513-1.513z"/></g><g><path  d="M58.926 52.946v-7.263a1.513 1.513 0 1 0-3.026 0v7.263a1.513 1.513 0 1 0 3.026 0z"/></g><g><path  d="M15.046 52.946v-7.263a1.513 1.513 0 1 0-3.026 0v7.263a1.513 1.513 0 1 0 3.026 0z"/></g><g><path  d="M5.966 52.946v-7.263a1.513 1.513 0 1 0-3.026 0v7.263a1.513 1.513 0 1 0 3.026 0z"/></g></g></g></svg>
