<svg xmlns="http://www.w3.org/2000/svg" width="76" height="76" viewBox="0 0 76 76"><g><g><g><g><path  d="M38 76C17.047 76 0 58.953 0 38S17.047 0 38 0s38 17.047 38 38-17.047 38-38 38zm0-72.252C19.114 3.748 3.748 19.114 3.748 38c0 18.886 15.366 34.252 34.252 34.252 18.886 0 34.252-15.366 34.252-34.252C72.252 19.114 56.887 3.748 38 3.748z"/></g><g><path  d="M26.116 61.843c0-5.649 5.262-10.229 11.755-10.229 6.493 0 11.756 4.58 11.756 10.229zm.952-24.751l-12.724 5.27L12.91 38.9l12.725-5.27zm37.46 1.807l-1.434 3.462-12.724-5.268 1.433-3.462z"/></g></g></g></g></svg>
