<svg xmlns="http://www.w3.org/2000/svg" width="53" height="53" viewBox="0 0 53 53"><g><g><g><g><g><path  d="M11.368 51.361l-1.559-2.195a1.035 1.035 0 1 0-1.688 1.198L9.68 52.56a1.034 1.034 0 0 0 1.443.245c.466-.331.576-.978.245-1.444z"/></g></g></g><g><g><g><path  d="M23.312 51.757l-1.696-8.083a15.245 15.245 0 0 0-6.447-9.57l-3.621-2.436a3.642 3.642 0 0 0-4.617.472V19.666a3.444 3.444 0 0 0-2.715-3.383 3.448 3.448 0 0 0-2.92.68A3.449 3.449 0 0 0 0 19.667v16.05c0 2.103.643 4.121 1.86 5.836l1.847 2.6a1.034 1.034 0 0 0 1.443.245c.466-.33.576-.977.245-1.443l-1.846-2.6a7.968 7.968 0 0 1-1.479-4.637v-16.05c0-.426.19-.822.522-1.089.332-.266.76-.366 1.176-.273a1.387 1.387 0 0 1 1.092 1.361V32.4c0 1.803.663 3.52 1.866 4.857.051.061.104.123.16.182.688.728 1.496 1.587 2.257 2.396l1.066 1.134.01.01c.912.97 1.584 1.686 1.599 1.7a1.035 1.035 0 0 0 1.509-1.416l-2.615-2.782-2.373-2.526-.018-.02a1.747 1.747 0 0 1 .034-2.289 1.565 1.565 0 0 1 2.038-.26l3.62 2.435A13.184 13.184 0 0 1 19.59 44.1l1.696 8.083a1.035 1.035 0 0 0 2.026-.425z"/></g></g></g><g><g><g><path  d="M7.664 46.153l-.006-.009a1.035 1.035 0 0 0-1.685 1.202l.006.01a1.034 1.034 0 1 0 1.685-1.203z"/></g></g></g><g><g><g><path  d="M51.708 16.963a3.45 3.45 0 0 0-2.92-.68 3.444 3.444 0 0 0-2.714 3.383V32.14a3.643 3.643 0 0 0-4.617-.47l-3.621 2.434a15.244 15.244 0 0 0-6.448 9.57l-1.696 8.084a1.035 1.035 0 1 0 2.026.425l1.696-8.084c.714-3.4 2.694-6.339 5.577-8.277l3.62-2.435a1.565 1.565 0 0 1 2.039.26c.582.658.59 1.621.035 2.287l-.02.022-4.987 5.307a1.035 1.035 0 1 0 1.509 1.418c.014-.015 4.244-4.513 4.931-5.241.056-.06.11-.12.16-.182a7.233 7.233 0 0 0 1.866-4.857V19.666c0-.659.45-1.219 1.093-1.362.415-.092.844.008 1.175.274.332.266.522.663.522 1.088v16.05c0 1.671-.51 3.275-1.478 4.637l-7.82 11.017a1.035 1.035 0 0 0 1.687 1.199l7.82-11.017a10.026 10.026 0 0 0 1.862-5.835v-16.05a3.45 3.45 0 0 0-1.297-2.704z"/></g></g></g><g><g><g><path  d="M39.614 19.84a4.85 4.85 0 0 1 3.734 4.732v1.933c0 .572-.463 1.035-1.035 1.035h-4.77c.007.127.013.254.013.382v3.72c0 .571-.464 1.035-1.036 1.035h-6.325a1.035 1.035 0 0 1 0-2.07h1.173v-2.14a1.035 1.035 0 0 1 2.07 0v2.14h2.047v-2.685a4.285 4.285 0 0 0-3.3-4.181l-2.832-.677-1.899 4.319a1.035 1.035 0 1 1-1.895 0l-1.901-4.325-2.84.68a4.286 4.286 0 0 0-3.298 4.181v2.687h2.047v-2.14a1.035 1.035 0 1 1 2.07 0v2.14h1.07a1.035 1.035 0 0 1 0 2.07h-6.222a1.035 1.035 0 0 1-1.036-1.035V27.92c0-.127.006-.253.013-.379h-4.757a1.035 1.035 0 0 1-1.035-1.035v-1.933a4.85 4.85 0 0 1 3.735-4.732l1.841-.44v-.33a4.63 4.63 0 0 1-1.982-3.796v-2.395a4.638 4.638 0 0 1 4.633-4.633c1.151 0 2.205.423 3.016 1.12a6.055 6.055 0 0 1 5.603-3.776 6.055 6.055 0 0 1 5.599 3.768 4.611 4.611 0 0 1 3.006-1.111 4.638 4.638 0 0 1 4.633 4.633v2.394a4.63 4.63 0 0 1-1.982 3.796v.33zm-6.846-7.976c1.07.555 2.26.846 3.47.846h1.44a2.566 2.566 0 0 0-2.557-2.393c-1.053 0-1.96.638-2.353 1.547zm-.21 3.41a2.566 2.566 0 0 0 2.563 2.562 2.566 2.566 0 0 0 2.562-2.562v-.493H36.24a9.615 9.615 0 0 1-3.677-.732v.922c0 .05-.002.101-.004.151zM22.54 11.636v.172h1.415a4.46 4.46 0 0 0 3.426-1.6 1.035 1.035 0 0 1 1.318-.227l1.743 1.023a3.983 3.983 0 0 0-3.926-3.344 3.98 3.98 0 0 0-3.976 3.976zm-7.2 1.074h1.44c1.21 0 2.4-.291 3.47-.846a2.566 2.566 0 0 0-2.353-1.547 2.566 2.566 0 0 0-2.557 2.393zm-.005 2.564a2.565 2.565 0 0 0 2.562 2.562 2.566 2.566 0 0 0 2.563-2.563v-1.225a9.616 9.616 0 0 1-3.68.732h-1.445zm5.523 6.325l-1.544-.37a1.034 1.034 0 0 1-.84-1.065v-.295a4.649 4.649 0 0 1-.577.037 4.66 4.66 0 0 1-.58-.037v.348c0 .479-.33.895-.795 1.007l-2.636.63a2.786 2.786 0 0 0-2.146 2.718v.898h4.196a6.348 6.348 0 0 1 4.399-3.745zm2.364-1.561a6.094 6.094 0 0 1-1.78-1.785c-.262.31-.564.586-.898.82v.322l1.85.443c.285.069.562.163.828.28zm4.496 1.6v-.741a6.049 6.049 0 0 1-2.425-.004v.739l1.214 2.762zm2.77-6.515v-1.69l-2.135-1.254a6.523 6.523 0 0 1-4.398 1.699H22.54v1.093a3.98 3.98 0 0 0 3.976 3.976 3.98 3.98 0 0 0 3.972-3.824zm-.7 4.998c.269-.119.548-.213.836-.283l1.85-.443v-.322a4.67 4.67 0 0 1-.89-.811 6.094 6.094 0 0 1-1.796 1.79zm11.49 5.349v-.898a2.786 2.786 0 0 0-2.146-2.719l-2.636-.63a1.035 1.035 0 0 1-.795-1.006v-.348a4.66 4.66 0 0 1-.58.038 4.65 4.65 0 0 1-.577-.038v.342a1.035 1.035 0 0 1-.845 1.02l-1.553.372.52.124a6.347 6.347 0 0 1 4.402 3.743z"/></g></g></g><g><g><g><path  d="M27.227 30.912a1.04 1.04 0 0 0-1.464 0 1.04 1.04 0 0 0 0 1.465c.193.193.459.303.732.303.272 0 .538-.11.732-.303.192-.194.303-.46.303-.732 0-.273-.11-.54-.303-.733z"/></g></g></g><g><g><g><path  d="M26.495 0c-.571 0-1.035.463-1.035 1.035v1.549a1.035 1.035 0 0 0 2.07 0V1.035C27.53.463 27.067 0 26.495 0z"/></g></g></g><g><g><g><path  d="M22.683 3.378l-1.086-1.085a1.035 1.035 0 1 0-1.463 1.464l1.086 1.085a1.032 1.032 0 0 0 1.463 0 1.035 1.035 0 0 0 0-1.464z"/></g></g></g><g><g><g><path  d="M32.834 2.313a1.035 1.035 0 0 0-1.464 0l-1.077 1.08a1.035 1.035 0 0 0 1.464 1.462l1.078-1.078a1.035 1.035 0 0 0 0-1.464z"/></g></g></g></g></g></svg>
