<svg xmlns="http://www.w3.org/2000/svg" width="56" height="56" viewBox="0 0 56 56"><g><g><g><g><g><path  d="M37.844 34.89c-.604 0-1.094.489-1.094 1.093v7.547a5.475 5.475 0 0 1-5.469 5.469H19.472c-.604 0-1.093.489-1.094 1.093l-.001 2.174-2.61-2.61a1.094 1.094 0 0 0-1.004-.657H7.656a5.475 5.475 0 0 1-5.468-5.469V26.686a5.475 5.475 0 0 1 5.468-5.468h11.047a1.094 1.094 0 0 0 0-2.188H7.656C3.435 19.03 0 22.465 0 26.686V43.53c0 4.222 3.435 7.656 7.656 7.656h6.547l4.492 4.492a1.093 1.093 0 0 0 1.867-.772l.003-3.72h10.716c4.222 0 7.657-3.434 7.657-7.656v-7.547c0-.604-.49-1.094-1.094-1.094z"/></g></g></g><g><g><g><path  d="M40.105 0c8.766 0 15.898 7.131 15.898 15.897 0 2.54-.582 4.966-1.728 7.214a16.05 16.05 0 0 1-4.179 5.151v6.328a1.094 1.094 0 0 1-1.867.774l-4.089-4.087a15.929 15.929 0 0 1-4.035.517h-2.768c-8.766 0-15.897-7.131-15.897-15.897S28.571 0 37.337 0zm13.71 15.897c0-7.56-6.15-13.71-13.71-13.71h-2.768c-7.56 0-13.71 6.15-13.71 13.71 0 7.56 6.15 13.71 13.71 13.71h2.768c1.374 0 2.73-.203 4.033-.603a1.093 1.093 0 0 1 1.094.272l2.677 2.675v-4.222c0-.343.161-.667.435-.874 3.477-2.618 5.471-6.612 5.471-10.958z"/></g></g></g><g><g><g><path  d="M43.64 11.965a4.641 4.641 0 0 0-4.294-4.294 4.595 4.595 0 0 0-3.485 1.234 4.647 4.647 0 0 0-1.471 3.386 1.094 1.094 0 0 0 2.188 0c0-.685.275-1.32.776-1.787a2.445 2.445 0 0 1 4.104 1.61 2.432 2.432 0 0 1-1.9 2.561 2.07 2.07 0 0 0-1.631 2.029v2.627a1.094 1.094 0 0 0 2.187 0v-2.54a4.607 4.607 0 0 0 3.526-4.826z"/></g></g></g><g><g><g><path  d="M39.797 22.89a1.102 1.102 0 0 0-.773-.32c-.288 0-.57.117-.774.32-.203.204-.32.486-.32.774 0 .288.117.57.32.774.204.204.486.32.774.32.287 0 .57-.116.773-.32.203-.204.32-.485.32-.774 0-.288-.117-.57-.32-.774z"/></g></g></g><g><g><g><path  d="M30.082 33.91H7.004a1.094 1.094 0 0 0 0 2.188h23.078a1.094 1.094 0 1 0 0-2.188z"/></g></g></g><g><g><g><path  d="M30.847 40.35a1.102 1.102 0 0 0-.773-.32c-.288 0-.57.117-.774.32-.203.204-.32.486-.32.774 0 .287.117.57.32.773.204.203.486.32.774.32.287 0 .57-.117.773-.32a1.1 1.1 0 0 0 .32-.773c0-.288-.117-.57-.32-.774z"/></g></g></g><g><g><g><path  d="M25.78 40.03H7.004a1.094 1.094 0 0 0 0 2.188H25.78a1.094 1.094 0 1 0 0-2.188z"/></g></g></g><g><g><g><path  d="M22.973 27.78H7.002a1.094 1.094 0 0 0 0 2.188h15.97a1.094 1.094 0 1 0 0-2.188z"/></g></g></g></g></g></svg>
