<?xml version="1.0" encoding="UTF-8" ?>
<!DOCTYPE svg PUBLIC "-//W3C//DTD SVG 1.1//EN" "http://www.w3.org/Graphics/SVG/1.1/DTD/svg11.dtd">
<svg width="252pt" height="252pt" viewBox="0 0 252 252" version="1.1" xmlns="http://www.w3.org/2000/svg">
<g id="#000000ff">
<path  opacity="1.00" d=" M 24.05 19.02 C 24.12 15.49 27.49 12.77 30.95 13.16 C 40.65 13.17 50.37 13.06 60.08 13.21 C 63.70 13.02 66.53 16.45 66.28 19.94 C 66.35 25.94 66.61 31.98 66.09 37.96 C 65.89 40.77 63.10 42.10 61.17 43.65 C 61.15 45.95 61.13 48.25 61.10 50.55 C 66.63 51.38 72.30 53.75 75.30 58.74 C 79.81 65.55 77.87 74.12 78.21 81.79 C 82.83 81.11 87.54 81.36 92.00 82.76 C 95.82 80.02 100.10 77.40 104.99 77.52 C 109.76 77.25 114.06 79.58 117.92 82.12 C 123.23 76.69 128.60 71.32 133.95 65.92 C 136.17 63.63 139.58 61.27 142.78 63.21 C 147.92 66.63 150.67 72.48 153.22 77.89 C 159.54 74.56 166.79 72.81 173.93 73.93 C 176.94 74.50 180.54 74.83 182.57 77.41 C 185.51 82.48 185.17 88.61 185.02 94.26 C 190.05 93.93 195.38 94.38 199.61 97.40 C 204.85 100.66 207.56 106.59 208.59 112.48 C 213.06 113.10 218.46 112.73 221.96 116.03 C 225.72 122.72 224.74 130.94 222.89 138.08 C 224.07 139.87 225.79 141.56 225.85 143.85 C 226.16 149.37 225.38 154.88 224.58 160.32 C 230.92 160.93 234.30 167.36 235.16 172.99 C 234.14 178.80 227.58 180.75 223.49 184.06 C 229.04 183.29 234.52 182.09 240.03 181.08 C 242.68 180.64 245.79 180.05 248.08 181.90 C 251.11 184.25 251.31 188.43 252.00 191.90 L 252.00 193.77 C 251.14 196.39 249.41 198.99 246.50 199.51 C 240.00 200.95 233.36 201.74 226.83 203.10 C 231.20 204.39 236.04 204.62 239.99 207.06 C 243.73 210.15 242.35 215.62 241.36 219.68 C 240.55 223.34 236.63 225.22 233.13 224.45 C 223.49 223.07 213.96 221.03 204.37 219.33 C 204.19 224.39 203.31 229.85 199.50 233.54 C 195.86 237.53 190.32 239.11 185.05 238.85 C 136.35 238.78 87.64 238.88 38.94 238.83 C 27.11 238.83 15.31 233.36 7.87 224.11 C 3.36 218.75 0.95 211.93 0.00 205.06 L 0.00 199.69 C 0.91 190.69 5.19 182.25 11.80 176.09 C 11.85 140.73 11.80 105.37 11.82 70.01 C 11.78 64.92 13.28 59.65 17.04 56.05 C 20.12 52.66 24.67 51.38 29.02 50.57 C 29.01 48.27 29.00 45.97 28.98 43.67 C 26.80 41.96 23.92 40.20 24.04 37.04 C 23.72 31.05 23.68 25.01 24.05 19.02 M 31.33 20.44 C 31.33 25.53 31.33 30.63 31.33 35.72 C 40.51 35.73 49.69 35.72 58.87 35.73 C 58.87 30.63 58.87 25.53 58.87 20.43 C 49.69 20.45 40.51 20.44 31.33 20.44 M 36.40 43.17 C 36.39 45.73 36.39 48.29 36.38 50.85 C 42.16 50.84 47.94 50.85 53.72 50.84 C 53.73 48.28 53.73 45.72 53.74 43.17 C 47.96 43.18 42.18 43.17 36.40 43.17 M 21.75 61.76 C 18.31 65.61 19.59 71.11 19.36 75.80 C 27.52 75.96 35.71 75.48 43.85 76.00 C 47.24 76.26 46.88 79.99 46.50 82.42 C 37.56 84.05 28.40 82.87 19.36 83.22 C 19.38 97.72 19.36 112.23 19.37 126.73 C 29.93 126.71 40.49 126.78 51.04 126.72 C 53.84 126.84 55.62 124.26 57.78 122.90 C 56.46 115.44 59.17 107.55 65.36 103.04 C 64.80 97.03 66.51 90.89 70.78 86.52 C 70.83 85.43 70.87 84.35 70.92 83.26 C 68.03 83.15 65.04 83.56 62.24 82.72 C 59.57 81.71 59.75 77.35 62.32 76.31 C 65.07 75.43 68.03 75.87 70.87 75.76 C 70.71 71.05 71.84 65.53 68.35 61.70 C 66.41 59.14 63.13 58.28 60.06 58.32 C 50.37 58.28 40.68 58.33 30.99 58.30 C 27.63 58.21 23.92 58.96 21.75 61.76 M 122.20 88.13 C 122.70 89.69 123.20 91.24 123.69 92.81 C 128.37 94.38 132.28 97.52 135.18 101.47 C 136.51 100.96 137.84 100.46 139.18 99.96 C 139.32 99.25 139.60 97.83 139.74 97.12 C 137.70 96.89 135.55 97.12 133.60 96.38 C 131.01 95.05 131.27 90.73 134.11 89.86 C 136.87 89.28 139.72 89.64 142.52 89.73 C 143.88 87.60 145.40 85.57 146.61 83.35 C 146.27 78.32 143.06 74.07 140.03 70.24 C 134.12 76.23 128.17 82.19 122.20 88.13 M 159.36 83.24 C 152.85 86.28 148.46 92.58 146.58 99.37 C 148.59 99.92 150.61 100.48 152.63 101.03 C 155.38 98.29 158.07 95.49 160.84 92.77 C 161.97 91.72 163.36 90.40 165.07 90.93 C 167.80 91.35 168.95 95.14 166.96 97.02 C 164.23 99.97 161.24 102.67 158.56 105.67 C 159.45 106.86 160.33 108.06 161.22 109.27 C 164.19 107.36 167.51 106.10 171.00 105.54 C 173.07 102.12 176.33 99.28 177.12 95.22 C 178.17 90.84 177.72 86.29 176.73 81.95 C 170.98 80.79 164.73 80.54 159.36 83.24 M 98.50 87.38 C 96.70 88.76 95.37 91.09 93.00 91.52 C 90.29 90.75 87.87 89.12 85.05 88.69 C 80.11 88.18 74.88 91.21 73.39 96.05 C 72.07 99.28 73.43 102.70 73.40 106.02 C 71.00 109.00 66.77 110.45 65.61 114.42 C 63.90 118.29 65.51 122.37 67.27 125.88 C 68.15 123.28 68.59 120.45 70.09 118.11 C 71.88 116.24 74.61 115.75 77.03 115.18 C 84.18 113.70 91.60 115.63 97.78 119.30 C 99.49 117.67 101.26 115.51 103.88 115.71 C 110.83 115.52 117.78 115.70 124.73 115.68 C 125.74 112.26 127.25 109.02 129.23 106.05 C 126.71 101.32 121.41 100.17 116.88 98.23 C 116.46 95.25 116.25 92.03 114.38 89.53 C 111.01 84.47 103.03 83.17 98.50 87.38 M 178.64 106.71 C 184.32 109.44 187.70 114.86 189.74 120.61 C 193.12 117.76 196.86 115.37 201.00 113.80 C 201.13 106.96 194.89 100.89 188.03 101.54 C 184.22 101.66 181.24 104.21 178.64 106.71 M 132.18 115.55 C 140.14 115.74 148.10 115.72 156.06 115.56 C 153.94 110.76 149.57 106.40 143.96 106.69 C 138.47 106.59 134.31 110.88 132.18 115.55 M 165.40 115.02 C 167.57 116.51 170.50 117.98 170.73 120.97 C 171.29 126.71 169.63 132.37 167.57 137.66 C 168.89 137.99 170.21 138.32 171.53 138.65 C 171.83 140.30 173.11 142.26 171.79 143.78 C 170.78 145.42 168.66 145.33 166.99 145.39 C 127.51 145.37 88.04 145.38 48.57 145.39 C 48.73 149.10 49.07 152.80 49.44 156.50 C 50.91 156.59 52.48 156.30 53.88 156.90 C 55.46 158.08 55.35 160.25 55.87 161.96 C 61.99 161.12 68.37 160.74 74.34 162.65 C 78.20 163.66 81.55 166.22 83.07 169.97 C 92.15 174.87 99.42 183.01 102.47 192.96 C 106.03 191.72 109.45 190.03 113.12 189.13 C 115.70 188.37 118.33 191.60 117.02 193.97 C 116.35 195.72 114.37 196.21 112.84 196.95 C 106.42 199.45 99.91 201.70 93.49 204.21 C 93.96 207.10 94.80 209.98 94.71 212.94 C 94.23 215.69 90.24 216.80 88.49 214.59 C 87.08 212.33 87.00 209.54 86.38 207.01 C 81.03 209.08 75.45 210.68 70.33 213.31 C 65.90 215.67 64.84 221.67 66.86 225.98 C 68.30 229.54 72.15 231.66 75.92 231.54 C 90.16 231.61 104.41 231.52 118.66 231.55 C 118.00 227.38 116.61 223.26 116.71 219.00 C 117.59 216.02 122.34 215.45 123.46 218.54 C 124.83 222.75 125.23 227.21 126.14 231.54 C 135.98 231.52 145.82 231.54 155.65 231.53 C 155.12 228.47 154.20 225.42 154.35 222.30 C 155.05 219.49 159.32 218.61 160.86 221.18 C 162.23 224.45 162.43 228.07 163.16 231.52 C 167.42 231.52 171.68 231.52 175.94 231.51 C 175.32 227.99 174.52 224.50 173.96 220.97 C 173.76 219.48 173.39 217.76 174.63 216.60 C 176.34 214.55 180.29 215.38 180.76 218.08 C 181.97 222.54 182.50 227.14 183.49 231.65 C 187.03 231.49 191.16 231.69 193.79 228.83 C 196.81 226.18 197.26 221.87 196.32 218.16 C 193.76 205.49 191.78 192.71 189.18 180.05 C 188.32 174.47 182.02 170.62 176.69 172.71 C 166.94 176.29 157.22 179.97 147.55 183.77 C 148.23 187.84 149.62 191.88 149.43 196.04 C 148.46 198.69 144.64 199.38 143.01 196.96 C 141.58 193.61 141.35 189.90 140.58 186.37 C 138.08 187.18 135.64 188.63 132.94 188.54 C 130.50 187.92 129.45 184.90 130.82 182.85 C 133.09 180.87 136.15 180.19 138.88 179.04 C 150.97 174.73 162.82 169.73 174.97 165.59 C 183.70 162.61 193.53 168.32 196.18 176.95 C 202.79 172.97 209.43 169.06 216.10 165.20 C 217.56 158.69 218.50 152.07 218.67 145.39 C 209.09 145.29 199.49 145.54 189.91 145.29 C 186.44 145.56 185.04 140.60 187.73 138.69 C 189.71 137.73 192.03 137.91 194.17 137.59 C 193.79 134.78 193.68 131.59 191.45 129.52 C 189.13 127.05 185.47 126.97 182.71 125.24 C 181.42 121.74 181.38 117.33 177.96 115.02 C 174.29 112.08 169.30 113.25 165.40 115.02 M 196.82 124.20 C 198.24 126.36 199.57 128.57 200.78 130.84 C 202.86 129.07 206.12 127.38 208.24 130.11 C 209.82 133.39 206.72 135.79 204.67 137.82 C 208.02 137.82 211.37 137.84 214.73 137.79 C 217.18 132.47 217.65 126.50 216.25 120.83 C 209.59 119.25 202.46 120.20 196.82 124.20 M 75.65 122.98 C 74.37 127.87 74.54 132.99 76.15 137.78 C 78.97 137.82 81.79 137.84 84.61 137.93 C 84.09 136.62 83.34 135.36 83.20 133.94 C 83.38 131.38 86.69 129.66 88.78 131.26 C 91.28 133.12 93.25 135.58 95.44 137.78 C 97.33 137.81 99.22 137.82 101.11 137.83 C 99.50 133.98 99.06 129.18 95.25 126.74 C 89.85 122.19 82.34 121.27 75.65 122.98 M 105.03 123.08 C 105.40 128.26 106.85 133.29 109.46 137.79 C 112.02 137.83 114.59 137.83 117.15 137.85 C 119.57 135.85 121.46 131.95 125.07 132.45 C 127.57 133.14 127.69 135.83 127.88 137.95 C 128.56 137.88 129.93 137.74 130.61 137.67 C 131.71 136.96 132.81 136.23 134.01 135.67 C 136.23 136.24 138.21 137.44 140.31 138.35 C 140.70 136.27 140.46 133.41 142.93 132.55 C 146.59 131.69 148.65 135.73 151.03 137.81 C 153.72 137.83 156.41 137.84 159.10 137.85 C 161.63 133.29 163.17 128.26 163.67 123.07 C 144.13 123.04 124.58 123.02 105.03 123.08 M 55.21 137.76 C 59.78 137.86 64.35 137.92 68.92 137.70 C 67.12 134.15 63.45 132.23 60.75 129.47 C 58.25 131.74 56.39 134.59 55.21 137.76 M 19.35 134.17 C 19.44 146.46 19.20 158.75 19.48 171.03 C 21.13 168.93 22.35 166.37 24.62 164.83 C 29.97 161.33 36.64 161.18 42.82 161.25 C 41.98 155.26 41.01 149.22 41.40 143.15 C 41.74 139.70 45.21 138.15 48.15 137.39 C 48.35 136.32 48.56 135.25 48.76 134.18 C 38.96 134.18 29.15 134.18 19.35 134.17 M 28.44 170.88 C 31.56 172.12 35.10 172.38 38.02 174.07 C 40.59 177.19 36.88 180.05 34.94 182.22 C 38.90 181.61 42.80 180.41 46.16 178.16 C 48.09 177.14 49.81 175.44 52.05 175.20 C 54.59 175.98 56.63 177.80 58.95 179.03 C 61.88 180.82 65.27 181.58 68.60 182.27 C 67.22 180.28 64.62 178.66 64.76 175.98 C 65.96 171.81 71.50 172.76 74.66 171.11 C 70.45 168.14 64.88 168.68 60.01 168.97 C 56.44 169.09 53.05 171.72 49.48 170.34 C 42.70 168.13 35.04 168.00 28.44 170.88 M 197.60 184.74 C 199.44 193.63 200.77 202.61 202.54 211.51 C 213.17 213.44 223.77 215.47 234.43 217.22 C 234.61 215.70 234.79 214.18 234.97 212.65 C 227.45 210.86 219.93 209.06 212.36 207.53 C 210.10 206.97 207.63 206.67 205.72 205.23 C 204.21 203.65 205.21 201.57 205.64 199.79 C 218.55 196.98 231.58 194.77 244.58 192.40 C 244.27 190.92 243.97 189.44 243.66 187.96 C 233.75 189.80 223.85 191.71 213.92 193.43 C 211.06 193.90 208.22 194.76 205.31 194.58 C 202.46 193.91 201.53 189.79 204.13 188.20 C 211.85 182.70 219.94 177.72 227.69 172.25 C 226.88 170.94 226.07 169.62 225.27 168.31 C 216.07 173.83 206.72 179.10 197.60 184.74 M 7.86 207.08 C 10.28 220.91 23.71 230.82 37.34 231.47 C 45.32 231.72 53.29 231.47 61.27 231.59 C 59.32 227.74 58.02 223.43 58.64 219.09 C 59.18 213.21 63.38 208.11 68.74 205.84 C 77.57 202.10 86.74 199.20 95.58 195.48 C 93.07 187.39 87.28 180.69 79.92 176.60 C 78.48 177.29 77.05 177.98 75.61 178.66 C 75.97 180.44 76.64 182.20 76.52 184.04 C 76.01 187.13 73.01 189.22 70.00 189.37 C 63.44 189.86 57.40 186.70 51.85 183.60 C 46.88 186.32 41.68 189.10 35.91 189.41 C 32.96 189.63 29.59 188.82 27.89 186.20 C 26.42 183.90 27.52 181.11 27.87 178.66 C 26.55 177.96 25.24 177.27 23.92 176.58 C 12.98 182.15 5.35 194.66 7.86 207.08 Z" />
<path  opacity="1.00" d=" M 136.18 76.91 C 138.12 75.19 141.62 76.59 141.80 79.19 C 142.21 82.05 139.33 83.82 137.59 85.62 C 135.90 87.61 132.21 87.22 131.35 84.63 C 130.38 81.19 133.96 78.86 136.18 76.91 Z" />
<path  opacity="1.00" d=" M 77.49 105.12 C 77.58 97.67 86.14 91.96 93.03 94.95 C 96.33 95.96 100.35 99.79 97.21 103.17 C 93.59 106.13 89.91 99.35 86.41 102.48 C 84.65 105.00 84.25 108.54 81.00 109.81 C 79.62 108.49 77.18 107.41 77.49 105.12 Z" />
<path  opacity="1.00" d=" M 103.27 104.41 C 108.67 101.87 115.86 105.12 117.31 110.95 C 117.95 114.02 113.52 116.31 111.48 113.88 C 109.92 112.73 108.54 110.36 106.26 111.24 C 104.77 112.48 103.61 114.09 101.99 115.17 C 99.88 115.82 97.34 114.20 97.36 111.92 C 97.43 108.46 100.21 105.65 103.27 104.41 Z" />
<path  opacity="1.00" d=" M 111.25 125.35 C 113.98 124.57 117.02 124.54 119.74 125.38 C 122.55 126.77 122.01 131.37 118.93 132.03 C 116.42 132.44 113.68 132.63 111.26 131.72 C 108.70 130.56 108.71 126.52 111.25 125.35 Z" />
<path  opacity="1.00" d=" M 149.19 125.25 C 151.69 124.60 154.39 124.63 156.92 125.18 C 160.03 126.06 160.03 131.04 156.92 131.91 C 154.42 132.52 151.66 132.57 149.19 131.82 C 146.36 130.85 146.35 126.22 149.19 125.25 Z" />
</g>
</svg>
