<?xml version="1.0" encoding="UTF-8" ?>
<!DOCTYPE svg PUBLIC "-//W3C//DTD SVG 1.1//EN" "http://www.w3.org/Graphics/SVG/1.1/DTD/svg11.dtd">
<svg width="160pt" height="160pt" viewBox="0 0 160 160" version="1.1" xmlns="http://www.w3.org/2000/svg">
<g id="#000000ff">
<path  opacity="1.00" d=" M 30.89 0.00 L 33.63 0.00 C 35.67 2.92 34.78 6.76 34.75 10.09 C 35.03 12.68 31.00 13.43 30.35 10.91 C 29.84 7.29 29.89 3.54 30.89 0.00 Z" />
<path  opacity="1.00" d=" M 46.22 0.00 L 48.63 0.00 C 50.24 2.32 50.57 5.18 50.88 7.91 C 51.78 15.72 50.67 23.66 48.34 31.13 C 45.66 39.67 40.54 47.12 35.61 54.48 C 47.40 58.48 59.61 61.23 71.94 62.94 C 76.93 63.73 81.97 63.08 86.98 63.29 C 88.81 63.23 89.44 65.98 88.13 67.02 C 86.97 67.93 85.34 67.73 83.98 67.98 C 75.29 68.63 66.66 67.02 58.18 65.33 C 49.49 63.61 40.93 61.30 32.57 58.37 C 29.12 63.51 26.65 69.20 24.13 74.83 C 35.66 76.61 47.48 79.09 57.43 85.50 C 66.97 91.27 73.86 100.34 80.00 109.44 C 85.19 101.70 90.94 94.11 98.37 88.36 C 109.09 80.03 122.76 77.19 135.77 74.59 C 133.46 68.93 130.47 63.58 127.03 58.53 C 117.56 61.78 107.82 64.34 97.95 66.06 C 95.15 67.34 93.41 62.44 96.38 61.76 C 105.77 59.70 115.23 57.75 124.31 54.51 C 118.50 45.91 112.60 37.00 110.35 26.69 C 108.45 17.98 107.74 8.49 110.96 0.00 L 113.60 0.00 C 115.21 1.72 114.39 4.03 114.12 6.07 C 112.35 15.44 114.15 25.11 117.51 33.92 C 120.29 33.54 123.95 33.10 124.77 29.84 C 126.05 19.96 123.94 9.80 125.86 0.00 L 128.60 0.00 C 130.38 2.28 129.67 5.31 129.82 7.98 C 129.59 15.27 130.12 22.58 129.56 29.86 C 129.00 34.83 124.30 37.69 119.80 38.60 C 125.59 49.17 133.70 58.37 138.64 69.42 C 143.71 80.56 144.60 93.32 142.24 105.26 C 140.09 115.91 134.91 125.57 130.35 135.33 C 126.20 143.69 122.34 152.27 117.06 160.00 L 114.68 160.00 C 113.74 158.37 113.61 156.49 114.84 154.97 C 122.53 142.38 128.35 128.80 134.26 115.31 C 139.06 104.02 140.07 91.24 137.17 79.32 C 126.55 81.54 115.36 83.01 105.98 88.89 C 97.64 93.67 91.48 101.28 85.94 108.96 C 84.40 111.41 82.25 113.84 82.38 116.91 C 82.38 129.61 82.36 142.31 82.42 155.01 C 82.51 156.74 81.91 158.37 81.41 160.00 L 79.12 160.00 C 78.74 159.56 77.99 158.67 77.62 158.23 C 77.78 145.15 77.59 132.07 77.73 119.00 C 77.76 116.82 77.74 114.50 76.41 112.66 C 68.96 100.75 59.02 89.32 45.28 84.78 C 37.85 82.63 30.44 80.11 22.72 79.21 C 20.38 89.65 20.56 100.75 24.04 110.92 C 30.18 127.20 38.23 142.70 46.57 157.95 C 46.16 158.46 45.34 159.49 44.93 160.00 L 42.90 160.00 C 38.63 153.99 35.53 147.25 32.18 140.71 C 27.70 131.22 22.78 121.89 19.43 111.92 C 14.44 96.93 16.09 80.12 23.08 66.03 C 27.86 56.33 34.98 48.05 40.14 38.56 C 37.38 37.77 34.37 36.95 32.52 34.57 C 29.38 30.81 30.08 25.55 30.23 21.01 C 30.12 18.91 33.34 17.89 34.43 19.74 C 35.44 23.27 34.13 27.15 35.49 30.61 C 36.72 33.28 39.87 33.53 42.40 33.94 C 46.42 23.86 47.73 12.60 45.09 2.00 C 45.37 1.50 45.94 0.50 46.22 0.00 Z" />
<path  opacity="1.00" d=" M 75.21 42.23 C 77.47 41.52 78.96 44.77 77.29 46.25 C 75.26 47.25 73.08 47.91 70.87 48.34 C 69.20 48.02 68.16 45.65 69.57 44.44 C 71.21 43.22 73.24 42.67 75.21 42.23 Z" />
<path  opacity="1.00" d=" M 82.40 42.47 C 84.64 41.07 87.41 42.58 89.57 43.51 C 91.58 44.24 91.13 47.66 88.97 47.80 C 86.86 47.58 84.79 46.94 82.87 46.05 C 81.46 45.43 81.44 43.50 82.40 42.47 Z" />
<path  opacity="1.00" d=" M 62.89 49.79 C 64.28 47.81 66.53 49.20 67.44 50.85 C 65.70 53.10 65.54 58.15 61.80 57.59 C 58.79 55.64 61.52 51.91 62.89 49.79 Z" />
<path  opacity="1.00" d=" M 93.31 49.25 C 94.61 47.47 96.96 48.85 97.69 50.45 C 98.73 52.24 100.84 54.89 98.77 56.74 C 96.49 58.29 94.98 55.47 94.10 53.81 C 93.51 52.46 91.75 50.59 93.31 49.25 Z" />
<path  opacity="1.00" d=" M 29.03 84.91 C 33.25 82.42 33.40 88.29 32.52 90.93 C 32.77 93.71 28.75 94.67 27.83 91.97 C 27.73 89.59 27.88 87.05 29.03 84.91 Z" />
<path  opacity="1.00" d=" M 127.47 85.34 C 128.56 83.28 131.91 84.57 131.80 86.82 C 132.40 89.32 133.08 94.32 128.99 93.57 C 126.91 91.57 126.93 87.92 127.47 85.34 Z" />
<path  opacity="1.00" d=" M 28.21 99.01 C 28.79 97.32 30.60 96.95 32.08 97.75 C 33.26 100.06 33.18 102.76 33.67 105.26 C 32.61 106.28 31.27 106.98 29.79 106.37 C 28.35 104.25 28.29 101.49 28.21 99.01 Z" />
<path  opacity="1.00" d=" M 127.61 98.44 C 128.68 96.23 132.44 97.61 131.84 99.98 C 131.67 102.57 131.57 107.57 127.74 106.48 C 125.46 104.42 127.09 100.97 127.61 98.44 Z" />
<path  opacity="1.00" d=" M 32.29 110.30 C 35.64 109.36 35.92 113.96 36.65 116.16 C 37.83 118.99 33.18 120.66 32.30 117.75 C 31.67 115.46 29.35 111.74 32.29 110.30 Z" />
<path  opacity="1.00" d=" M 126.20 110.21 C 130.81 109.70 128.88 115.38 127.68 117.81 C 127.12 120.36 122.80 119.35 123.33 116.86 C 123.86 114.55 124.10 111.65 126.20 110.21 Z" />
<path  opacity="1.00" d=" M 54.23 116.21 C 54.68 116.20 55.58 116.17 56.04 116.16 C 59.19 118.57 62.23 121.22 64.88 124.18 C 64.85 124.65 64.80 125.58 64.77 126.05 C 62.27 128.78 59.42 131.21 56.57 133.58 C 55.68 134.44 53.68 134.04 53.23 132.86 C 52.23 130.33 55.13 128.95 56.51 127.35 C 53.99 127.38 51.46 127.50 48.95 127.26 C 46.72 126.78 46.69 123.20 48.99 122.81 C 51.49 122.54 54.01 122.67 56.52 122.67 C 54.69 121.17 51.19 118.35 54.23 116.21 Z" />
<path  opacity="1.00" d=" M 95.22 124.12 C 97.87 121.18 100.92 118.56 104.05 116.16 C 106.10 115.48 106.98 117.40 107.43 119.00 C 106.08 120.18 104.89 121.51 103.56 122.69 C 106.08 122.70 108.61 122.54 111.13 122.80 C 113.32 123.30 113.38 127.03 110.99 127.25 C 108.52 127.51 106.03 127.39 103.55 127.37 C 105.08 128.73 106.53 130.18 107.59 131.95 C 106.63 133.00 105.68 134.53 104.00 133.92 C 100.90 131.50 97.88 128.90 95.25 125.99 C 95.24 125.52 95.23 124.59 95.22 124.12 Z" />
<path  opacity="1.00" d=" M 35.52 123.32 C 38.85 120.56 40.54 125.70 41.28 128.17 C 42.91 130.97 37.91 133.01 37.06 129.99 C 36.23 127.91 34.34 125.58 35.52 123.32 Z" />
<path  opacity="1.00" d=" M 121.19 123.12 C 122.79 121.17 126.09 123.87 124.74 125.95 C 123.85 128.25 122.63 133.04 119.30 131.00 C 117.52 128.52 119.90 125.34 121.19 123.12 Z" />
<path  opacity="1.00" d=" M 41.19 135.17 C 44.26 132.58 46.05 137.74 47.02 140.01 C 48.51 142.50 44.12 144.78 42.95 141.99 C 42.01 139.99 39.38 137.25 41.19 135.17 Z" />
<path  opacity="1.00" d=" M 112.40 141.13 C 114.04 138.89 114.39 134.17 117.93 134.48 C 121.34 136.07 118.31 139.86 117.08 141.97 C 116.02 144.40 113.19 142.99 112.40 141.13 Z" />
<path  opacity="1.00" d=" M 48.13 146.13 C 50.00 144.88 51.43 147.52 52.26 148.83 C 53.50 150.53 55.01 153.67 52.08 154.61 C 49.32 154.76 48.48 151.64 47.31 149.74 C 46.40 148.53 46.66 146.71 48.13 146.13 Z" />
<path  opacity="1.00" d=" M 106.19 152.13 C 107.11 149.51 108.69 147.09 110.90 145.37 C 115.39 147.25 111.85 151.73 109.90 154.21 C 108.25 155.34 106.17 154.00 106.19 152.13 Z" />
</g>
</svg>
