<?xml version="1.0" encoding="UTF-8" ?>
<!DOCTYPE svg PUBLIC "-//W3C//DTD SVG 1.1//EN" "http://www.w3.org/Graphics/SVG/1.1/DTD/svg11.dtd">
<svg width="144pt" height="144pt" viewBox="0 0 144 144" version="1.1" xmlns="http://www.w3.org/2000/svg">
<g id="#000000ff">
<path  opacity="1.00" d=" M 70.31 0.00 L 73.93 0.00 C 76.47 0.90 79.10 2.02 80.77 4.24 C 83.06 6.81 83.13 10.41 83.56 13.64 C 91.51 21.24 91.85 34.77 85.10 43.23 C 94.32 44.69 102.83 50.68 106.44 59.42 C 109.48 67.22 111.78 75.30 114.59 83.20 C 115.99 87.49 120.36 89.61 123.42 92.59 C 128.06 96.94 133.48 100.50 137.61 105.35 C 139.06 110.60 134.61 115.08 130.11 116.93 C 131.65 120.99 132.83 125.41 131.79 129.75 C 131.13 132.95 129.28 135.72 127.55 138.43 C 132.56 138.34 137.57 138.38 142.58 138.39 C 142.93 138.93 143.64 139.99 144.00 140.52 L 144.00 142.35 C 142.74 142.08 142.13 142.63 142.16 144.00 L 1.63 144.00 C 1.94 142.60 1.40 142.04 0.00 142.31 L 0.00 140.59 C 0.32 140.05 0.96 138.96 1.27 138.42 C 6.32 138.37 11.37 138.34 16.42 138.43 C 14.36 135.26 12.25 131.90 11.86 128.03 C 11.27 124.21 12.61 120.48 13.90 116.95 C 10.17 115.25 6.46 112.38 6.10 107.97 C 5.32 104.62 8.87 102.87 10.86 100.89 C 16.65 95.69 23.03 91.07 28.36 85.42 C 32.13 76.76 34.13 67.41 37.84 58.71 C 41.62 50.33 49.92 44.62 58.91 43.26 C 52.07 34.81 52.47 21.20 60.45 13.61 C 60.85 10.62 60.84 7.33 62.74 4.81 C 64.46 2.20 67.40 0.85 70.31 0.00 M 65.95 10.28 C 69.97 9.64 74.04 9.66 78.06 10.28 C 76.68 8.10 74.96 5.39 71.97 5.62 C 69.00 5.41 67.32 8.11 65.95 10.28 M 69.42 15.58 C 64.87 16.52 61.07 20.31 60.22 24.89 C 59.40 29.67 59.54 35.21 62.97 39.02 C 67.10 43.96 75.29 44.41 79.99 40.03 C 84.45 36.13 84.77 29.50 83.56 24.10 C 82.05 18.10 75.44 14.11 69.42 15.58 M 43.02 60.97 C 39.12 70.12 37.01 80.01 32.98 89.07 C 26.10 95.51 18.77 101.48 11.62 107.63 C 12.48 109.03 13.29 110.71 15.06 111.12 C 17.84 112.22 20.13 109.77 22.15 108.25 C 27.56 103.65 33.27 99.40 38.58 94.68 C 43.43 90.47 45.16 84.09 47.69 78.44 C 48.88 75.41 50.72 72.42 50.53 69.05 C 50.78 66.79 50.04 64.21 51.31 62.21 C 53.30 60.07 56.66 62.30 56.13 64.93 C 56.27 75.98 56.11 87.04 56.18 98.10 C 66.73 98.14 77.27 98.10 87.82 98.12 C 87.92 86.71 87.63 75.29 87.94 63.88 C 87.95 61.09 92.14 60.46 93.22 63.01 C 93.63 65.86 93.25 68.76 93.63 71.62 C 94.40 74.53 95.84 77.21 96.95 79.99 C 99.08 84.95 100.77 90.39 104.85 94.16 C 109.00 98.05 113.63 101.40 117.96 105.08 C 120.63 107.15 123.02 109.64 126.06 111.16 C 128.78 112.24 130.93 109.88 132.58 108.09 C 126.04 102.05 119.12 96.44 112.44 90.56 C 111.32 89.58 110.34 88.41 109.93 86.95 C 107.16 79.01 104.69 70.96 101.85 63.04 C 99.96 57.80 96.05 53.32 91.00 50.93 C 85.45 48.07 79.02 48.76 73.00 48.70 C 68.31 48.79 63.58 48.39 58.92 49.08 C 52.09 50.09 45.88 54.66 43.02 60.97 M 50.54 86.49 C 47.81 93.95 42.18 99.63 35.97 104.31 C 40.88 102.60 45.75 100.79 50.58 98.87 C 50.54 94.74 50.54 90.62 50.54 86.49 M 93.42 98.92 C 98.21 100.76 103.01 102.58 107.86 104.25 C 104.67 101.40 101.14 98.88 98.49 95.50 C 96.38 92.82 94.98 89.69 93.50 86.65 C 93.44 90.74 93.44 94.83 93.42 98.92 M 50.06 105.11 C 42.35 108.04 34.59 110.86 26.86 113.74 C 23.86 114.81 20.92 116.51 19.29 119.34 C 16.05 124.32 17.12 131.54 21.70 135.33 C 25.16 138.42 30.32 139.18 34.59 137.40 C 46.96 132.84 59.30 128.22 71.65 123.60 C 75.23 122.12 79.15 122.62 82.92 122.50 C 79.99 117.96 74.80 114.48 69.20 115.50 C 61.26 117.30 53.66 120.33 45.83 122.51 C 44.56 122.89 42.98 123.04 42.19 121.71 C 40.63 120.08 42.13 117.59 44.12 117.22 C 51.16 114.88 58.29 112.78 65.38 110.55 C 69.82 109.06 74.58 109.72 78.89 111.32 C 89.74 114.64 100.69 117.64 111.59 120.81 C 111.77 122.30 112.86 124.17 111.26 125.26 C 110.03 126.46 108.33 125.63 106.91 125.36 C 100.58 123.54 94.26 121.67 87.92 119.88 C 89.12 121.67 90.33 123.46 91.53 125.25 C 90.52 127.92 87.85 128.31 85.34 128.56 C 93.93 131.48 102.30 135.03 110.91 137.85 C 118.01 140.22 126.19 134.40 126.47 126.97 C 127.03 121.64 123.70 116.24 118.68 114.39 C 111.46 111.55 104.14 109.01 96.90 106.24 C 93.70 105.05 90.49 103.54 86.99 103.70 C 77.00 103.74 67.00 103.74 57.01 103.70 C 54.61 103.62 52.28 104.23 50.06 105.11 M 48.80 138.29 C 64.28 138.44 79.76 138.43 95.24 138.29 C 87.57 135.13 79.71 132.46 71.95 129.50 C 64.26 132.48 56.41 135.09 48.80 138.29 Z" />
<path  opacity="1.00" d=" M 32.45 121.29 C 34.79 118.19 39.46 123.00 36.26 125.29 C 33.88 127.68 29.92 123.55 32.45 121.29 Z" />
</g>
</svg>
